<?xml version="1.0" encoding="UTF-8"?>
<svg id="Layer_2" data-name="Layer 2" xmlns="http://www.w3.org/2000/svg" viewBox="0 0 254.97 236.71">
  <defs>
    <style>
      .cls-1 {
        fill: #030101;
      }

      .cls-2 {
        fill: #010100;
      }

      .cls-3 {
        fill: #802a16;
      }

      .cls-4 {
        fill: #e4bd95;
      }

      .cls-5 {
        fill: #070605;
      }

      .cls-6 {
        fill: #922724;
      }

      .cls-7 {
        fill: #060302;
      }

      .cls-8 {
        fill: #e6be97;
      }

      .cls-9 {
        fill: #9a9999;
      }

      .cls-10 {
        fill: #040403;
      }

      .cls-11 {
        fill: #aa2316;
      }
    </style>
  </defs>
  <g id="Layer_1-2" data-name="Layer 1">
    <path class="cls-10" d="M140.86,137c5.07-.05,9.67,1.48,13.9,4.33,.66,.47,1.54,1.18,1.62,1.83,.16,1.3-.07,2.62-.19,3.98-.99-.15-2.27-.04-3.03-.55-5.52-4.2-11.43-5.11-17.8-2.73-1.79,.69-3.23,2.32-5.01,3.17-1.01,.45-2.4,.22-3.63,.28,.18-1.27-.15-2.96,.55-3.7,3.7-3.81,8.04-6.49,13.59-6.61Z"/>
    <path class="cls-10" d="M75.04,207.71c.1-.77-.72-1.58-1.15-2.39-.91,.53-2.15,.86-2.58,1.63-.77,1.43-1.15,3.06-1.48,4.69-1.81,9.01-5.82,16.84-10.86,24.25,1.77,.03,3.54,.06,5.3,.09,4.56-7.1,8.33-14.58,9.72-23.19,.29-1.67,.91-3.35,1.05-5.07Z"/>
    <path class="cls-10" d="M32.62,187.97c-5.47,5.12-10.12,11.15-13.77,18.3-2.25,4.35-5.02,8.46-8.18,12.19-4.32,5.07-7.94,10.52-10.54,16.59,.43,.03,.86,.05,1.29,.07l31.19-47.16Z"/>
    <path class="cls-10" d="M1.28,235.36l.15-.23c-.43-.02-.86-.04-1.29-.07-.04,.1-.09,.2-.14,.31,.43,0,.85,0,1.28,0Z"/>
    <path class="cls-10" d="M222.47,194.08c-3.73-2.77-6.89-6.26-10.09-9.66-4.83-5.12-9.42-10.52-16.02-13.49-1.63-.77-3.3-1.29-5.4-2.1,1.05-.48,1.43-.72,1.91-.86,10.19-3.54,19.46-8.99,28.36-14.82,8.99-5.88,16.55-13.53,22.91-22.28,7.7-10.62,12-22.09,10.57-35.39-1.1-9.95-4.88-18.89-10.19-27.16-7.03-10.95-15.64-20.61-25.49-29.17-9.47-8.22-19.75-15.11-31.03-20.75-11.57-5.79-24.2-8.03-36.3-11.95-6.74-2.2-13.49-4.26-20.28-6.31-.86-.24-1.96-.1-2.82,.19-3.59,1.15-7.03,2.63-10.62,3.59-9.85,2.63-19.85,4.83-29.7,7.6-11.38,3.2-22.62,7.32-32.57,13.63-16.78,10.66-32.47,22.76-43.95,39.5-4.35,6.36-7.7,13.1-9.37,20.56C-.85,99.68-.04,113.74,7.47,127.08c4.73,8.37,10.14,16.16,16.78,23.1,8.08,8.37,17.36,14.97,28.26,19.13,2.3,.86,4.59,1.67,7.32,2.68-1.82,.43-3.16,.57-4.35,1.1-8.58,3.91-16.31,8.75-22.86,14.89L1.43,235.13c1.2,.06,2.43,.08,3.66,.07,2.03-4.42,5.15-8.45,7.88-12.58,4.21-6.41,9.32-12.34,12.86-19.08,3.25-6.22,7.99-10.76,13.1-14.92,4.73-3.83,9.99-7.27,15.45-9.99,3.92-1.96,8.51-2.87,12.91-3.59,2.3-.38,3.4-1.63,3.73-3.35,.1-.53-1.96-2.01-3.2-2.3-12.58-2.82-23.86-7.99-33.81-16.4-10.23-8.61-18.08-18.94-24.1-30.8-4.5-8.89-5.45-18.27-4.54-28.07,1.24-13.92,7.56-25.39,16.59-35.58,9.18-10.33,20.04-18.84,31.37-26.68,8.66-5.98,18.22-10.47,28.26-13.44,12.19-3.63,24.58-6.41,36.87-9.61,2.1-.53,4.35-.86,6.17-1.91,3.44-1.96,6.74-1.63,10.33-.53,8.89,2.73,17.74,5.93,26.83,7.84,16.98,3.54,31.85,11.14,45.67,21.33,12.96,9.52,24.01,20.85,32.66,34.29,5.45,8.42,9.23,17.55,9.95,28.07,.81,11.91-3.2,21.52-9.95,30.65-5.36,7.22-11.57,13.63-18.79,18.94-8.85,6.46-18.55,11.52-28.74,15.73-2.77,1.15-5.36,3.01-7.56,5.02-1.48,1.34-.53,3.78,1.48,4.16,10.85,2.15,17.88,9.56,24.67,17.45,2.77,3.2,5.98,6.31,9.52,8.66,5.88,3.92,9.9,9.42,13.1,15.3,3.69,6.82,7.1,13.81,10.44,20.84,1.04-.07,2.08-.13,3.11-.2,.81-.05,1.61-.09,2.42-.12-3.49-8.18-7.39-16.18-12.34-23.63-4.16-6.31-8.8-12.05-14.97-16.64Z"/>
    <path class="cls-10" d="M1.43,235.13l-.15,.23c1.25,0,2.49,0,3.74,0,.02-.05,.05-.1,.07-.15-1.23,0-2.46-.02-3.66-.07Z"/>
    <path class="cls-10" d="M187.84,216.6c-2.1-4.45-3.59-9.18-5.55-13.68-.48-1.05-1.91-1.72-2.87-2.53-.48,1.29-1.53,2.77-1.24,3.92,2.3,8.8,5.79,17.12,11.81,24.1,2.47,2.85,5.26,5.42,7.7,8.3,1.9-.05,3.81-.1,5.71-.16-1.19-1.84-2.53-3.59-4.09-5.22-4.35-4.54-8.75-8.99-11.48-14.73Z"/>
    <path class="cls-7" d="M63.89,41.34c13.15,.43,24.01-3.25,33.9-10.04,2.25-1.58,4.16-3.68,6.12-5.64,1.34-1.34,2.58-1.48,4.4-.72,11.33,4.69,22.81,6.31,34.62,1.63,3.2-1.29,6.55-2.34,9.9-3.3,2.15-.62,4.06,.1,5.5,1.91,6.98,8.89,16.93,12.67,27.35,15.4,2.92,.77,6.03,.91,9.04,1.15,2.77,.19,4.35,1.72,5.02,4.21,1.86,6.79,5.5,12.48,11,16.69,4.21,3.2,8.85,5.93,13.34,8.7,2.15,1.34,3.16,2.49,2.25,5.4-3.4,11.05-2.49,21.9,2.44,32.33,1.29,2.77,1,4.59-1.63,6.36-8.89,6.17-15.21,14.3-18.36,24.72-1.15,3.83-3.49,5.5-7.56,6.5-13.05,3.11-24.2,9.52-31.7,21.09-1.96,3.01-4.16,4.35-7.89,4.69-10.71,1-20.71,4.35-29.12,11.38-2.39,2.01-3.83,1.72-6.5-.14-5.12-3.49-10.81-6.36-16.64-8.56-3.68-1.39-8.13-1.77-12.1-1.24-7.36,.96-12.39-2.34-17.02-7.17-5.02-5.21-10.52-9.9-17.31-12.72-2.92-1.2-6.03-1.82-9.13-2.58-2.25-.57-3.97-1.29-5.12-3.73-4.4-9.56-9.52-18.6-18.75-24.58-4.21-2.73-4.02-3.49-2.34-8.13,3.16-8.85,5.98-17.88,4.69-27.5-.38-3.01-1.29-6.03-2.06-8.99-.72-2.68,0-4.11,2.63-5.64,4.11-2.39,7.56-5.83,11.48-8.66,7.41-5.36,11.72-13.1,16.69-20.42,.86-1.2,2.34-2.01,2.87-2.39Zm133.99,12.15c-.19-.19-.43-.43-.62-.62-.43-1.15-1-2.25-1.2-3.4-.43-2.3-1.39-3.54-4.02-3.49-2.44,0-4.88-.53-7.27-1.15-11.09-2.73-21.61-6.55-29.12-15.88-.43-.57-1.72-.91-2.39-.72-2.96,.77-5.88,1.72-8.75,2.77-10.86,4.06-21.71,3.44-32.57,.29-1.86-.53-3.63-1.24-5.31-1.86-6.07,7.41-14.68,10.28-23.24,13.92,6.41,2.58,6.46,7.79,6.17,12.96,3.87,1.39,5.12,1.29,7.08-1.82,1.82-2.87,3.01-6.22,4.73-9.18,.57-1,1.82-2.01,2.87-2.1,.81-.1,2.25,.96,2.63,1.86,.72,1.63,1.2,3.54,1.24,5.31,.1,3.11-.24,6.17-.43,9.52,3.68-.81,5.55-3.11,7.22-5.79,.81-1.29,2.1-2.25,3.16-3.35,1.05,1.05,2.15,2.01,3.11,3.11,.53,.62,.72,1.48,1.1,2.2,1.91,3.25,4.4,5.69,8.66,6.69-2.25-6.26-.57-11.91,1-17.55,.96-3.44,3.83-4.78,5.45-2.44,2.15,3.06,3.73,6.55,5.36,9.95,.48,1.05,.24,2.44,.33,4.02,4.4-3.59,6.6-7.89,7.89-12.77,.33-1.2,1.53-2.63,2.58-2.92,.96-.29,2.44,.67,3.44,1.43,.72,.57,1.34,1.72,1.43,2.63,.53,4.16,.86,8.32,1.29,12.43,4.11-.81,6.69-3.49,6.84-8.66,.05-1.34,1.39-3.3,2.58-3.68,1.15-.38,3.16,.57,4.21,1.53,1,.96,1.24,2.68,1.82,4.11,.33,.72,.48,1.63,1,2.15,1.2,1.2,8.8,.67,9.8-.72,2.1-2.87,4.59-2.53,7.32-1.29,1.39,.62,2.77,1.29,4.11,1.91,.05,.14,.24,.38,.48,.57,.19,.19,.38,.33,.57,.53,0,0,.14-.14,.24-.19-.29-.14-.57-.24-.81-.33ZM36.11,103.7c1.24-1.48,2.63-2.82,3.68-4.45,2.15-3.3,2.77-7.03,2.44-10.9-.24-2.3-1.77-2.77-3.78-2.53-2.34,.29-1.67,1.72-1.39,3.2,.24,1.2,.19,2.49,.1,3.68-.29,3.63-.72,7.32-1.05,11-.14,.1-.24,.19-.33,.29,.1,0,.19,0,.19-.05,.1-.05,.14-.14,.14-.24Zm16.88,42.37c3.83,1.15,7.27,1.86,10.52,3.2,9.71,3.97,17.17,11.14,24.44,18.41,2.06,2.06,4.16,2.2,6.55,2.34,5.59,.29,11.24,.19,16.83,.72,3.83,.38,7.51,1.96,11.33,2.3,4.88,.38,9.8,.29,14.68-.05,2.92-.19,5.74-1.15,8.66-1.72,5.16-1.05,10.38-2.06,15.54-3.2,1.2-.29,2.49-.86,3.3-1.72,1.53-1.72,2.58-3.87,4.11-5.59,8.03-8.89,17.69-15.21,29.46-17.88,3.35-.77,5.45-1.72,6.69-5.55,1.58-4.83,4.3-9.52,7.36-13.58,3.44-4.59,7.89-8.51,11.86-12.72-1.05-3.16-2.34-6.93-3.78-11.09-7.27,3.49-14.06,1.86-19.61-2.77-3.87,1.91-7.13,3.59-10.47,5.16-10.19,4.83-20.85,7.56-32.09,5.07-5.5-1.2-11.14-2.58-14.82-7.79-3.97-5.64-8.46-10.23-16.55-9.47-6.26,.57-11.52,1.91-15.21,7.51-2.53,3.83-5.83,6.98-10.57,8.51-6.93,2.3-13.77,3.49-21.09,2.2-9.71-1.72-18.75-4.83-26.83-10.57-1.96-1.39-3.68-3.11-5.59-4.78-2.3,8.22-5.74,14.3-10.62,17.36-3.25,2.01-5.36,4.4-5.64,8.46,10.81,6.46,16.93,16.78,21.52,27.26ZM221.84,75.58c-3.01-1.91-5.79-3.68-8.46-5.45-1.96-1.29-3.68-3.06-5.83-3.97-4.45-1.96-9.13-3.44-13.68-5.21-8.85-3.49-17.79-4.35-26.87-1.24-3.68,1.24-7.36,2.73-10.86,4.4-6.89,3.35-13.63,6.84-21.61,6.26-1.29-.1-2.63,.14-3.92,.24-10.71,.53-21.28,1.24-31.13-4.73-5.45-3.3-11.43-5.74-17.98-6.98-9.18-1.72-17.26,.96-25.3,4.64-3.25,1.48-6.6,2.77-9.61,4.69-3.54,2.25-6.74,5.02-9.99,7.7-.81,.72-1.58,2.1-1.48,3.11,.05,.67,1.67,1.72,2.58,1.72,4.06,.14,7.13,1.77,9.85,4.83,5.16,5.74,10.81,10.9,18.41,13.68,8.7,3.16,17.36,5.83,26.73,4.3,5.4-.91,10.57-2.49,13.96-7.08,3.83-5.16,8.13-8.94,14.78-10.71,7.08-1.86,18.51,.19,22.76,7.13,3.68,6.03,9.37,8.99,16.26,10.04,7.51,1.2,14.78,.05,21.81-2.53,4.45-1.63,8.99-3.2,12.86-5.79,4.06-2.73,7.65-6.31,10.86-10.04,2.92-3.35,6.31-4.3,10.38-4.35,4.54,0,4.54-.05,5.5-4.64ZM75.27,45.55c-3.54,.19-6.69,.33-9.85,.57-.43,.05-.91,.48-1.15,.86-2.58,3.97-5.16,7.94-7.84,12.05,1.05-.43,2.1-.81,3.11-1.2,2.73-1.1,5.45-2.92,8.22-3.11,4.93-.33,7.79-1.77,7.03-7.22-.05-.48,.24-1,.48-1.96Zm131.03,48.2c2.1,2.44,6.69,3.3,10.19,1.58,3.35-1.63,3.87-3.54,2.63-10.71-2.06,.57-4.5,.67-6.03,1.86-2.53,2.06-4.5,4.78-6.79,7.27Zm-68.57-28.84c3.06,.72,12.67-1.82,13.44-4.11,.96-2.87,4.3-5.26,2.68-9.18-3.97,6.5-8.18,12.15-16.12,13.29Zm-20.71-4.02c.29-.38,.53-.77,.81-1.1-1.29,1-2.49,2.06-3.83,2.96-1.29,.86-2.68,1.63-4.02,2.39,0,.19,0,.43-.05,.62,4.59,.19,9.23,.43,13.34,.62-2.2-1.96-4.21-3.73-6.26-5.5Zm-32.61-6.12c-.38-2.68,.43-5.59-2.96-6.31-.48-.1-1.67,1.39-1.82,2.3-.72,3.59,1.86,3.73,4.78,4.02Zm51.21,6.36h.86c1-3.44,1.63-6.89-.86-10.33v10.33Z"/>
    <path class="cls-8" d="M52.99,146.07c-4.59-10.47-10.71-20.85-21.52-27.4,.29-4.06,2.39-6.46,5.64-8.46,4.88-3.06,8.32-9.13,10.62-17.36,1.91,1.63,3.63,3.4,5.59,4.78,8.03,5.74,17.12,8.89,26.83,10.57,7.32,1.29,14.15,.1,21.09-2.2,4.73-1.53,8.03-4.69,10.57-8.51,3.73-5.59,8.94-6.93,15.21-7.51,8.08-.77,12.58,3.83,16.55,9.47,3.68,5.21,9.32,6.55,14.82,7.79,11.29,2.49,21.9-.29,32.09-5.07,3.3-1.58,6.6-3.25,10.47-5.16,5.55,4.64,12.39,6.26,19.61,2.77,1.43,4.16,2.73,7.99,3.78,11.09-4.02,4.21-8.42,8.13-11.86,12.72-3.06,4.11-5.79,8.75-7.36,13.58-1.24,3.83-3.35,4.78-6.69,5.55-11.76,2.68-21.42,9.04-29.46,17.88-1.53,1.72-2.58,3.87-4.11,5.59-.77,.86-2.1,1.48-3.3,1.72-5.16,1.15-10.38,2.15-15.54,3.2-2.87,.57-5.74,1.53-8.66,1.72-4.88,.29-9.85,.43-14.68,.05-3.83-.33-7.51-1.91-11.33-2.3-5.59-.53-11.24-.43-16.83-.72-2.39-.1-4.54-.29-6.55-2.34-7.27-7.27-14.73-14.44-24.44-18.41-3.2-1.15-6.69-1.91-10.52-3.06Zm75.12-24.48c.1-.14,.14-.33,.24-.48,1.48-.29,3.06-.33,4.45-.96,3.59-1.58,6.69-3.83,7.27-8.03,.48-3.4-.86-6.17-3.59-8.27-5.21-3.97-16.4-2.82-20.75,2.1-4.3,4.83-3.68,9.85,2.15,12.82,3.06,1.58,6.79,1.91,10.23,2.82Zm13.05,15.49c-5.36-.1-9.61,2.34-13.29,5.88-.67,.67-.43,2.3-.62,3.49,1.2-.05,2.49,.24,3.54-.19,1.72-.72,3.2-2.25,4.97-2.87,6.22-2.1,12-1.1,17.22,3.11,.67,.57,1.91,.43,2.92,.62,.1-1.24,.43-2.53,.29-3.78-.1-.67-.91-1.34-1.53-1.77-4.11-2.82-8.56-4.35-13.49-4.5Z"/>
    <path class="cls-11" d="M221.84,75.58q-.91,4.59-5.45,4.64c-4.06,.05-7.46,1-10.38,4.35-3.2,3.73-6.79,7.32-10.86,10.04-3.87,2.58-8.46,4.21-12.86,5.79-7.03,2.53-14.3,3.68-21.81,2.53-6.89-1.05-12.53-4.02-16.26-10.04-4.26-6.93-15.68-8.99-22.76-7.13-6.69,1.77-11,5.55-14.82,10.71-3.4,4.59-8.61,6.17-13.96,7.08-9.37,1.53-18.03-1.1-26.73-4.3-7.6-2.77-13.2-7.94-18.41-13.68-2.77-3.06-5.83-4.64-9.85-4.83-.96-.05-2.53-1.05-2.58-1.72-.1-1,.67-2.39,1.48-3.11,3.2-2.73,6.46-5.45,9.99-7.7,2.96-1.91,6.36-3.2,9.61-4.69,8.03-3.68,16.12-6.36,25.3-4.64,6.5,1.2,12.48,3.63,17.98,6.98,9.85,5.98,20.47,5.26,31.13,4.73,1.29-.05,2.63-.33,3.92-.24,7.99,.57,14.78-2.92,21.61-6.26,3.49-1.72,7.17-3.16,10.86-4.4,9.09-3.11,18.03-2.25,26.87,1.24,4.54,1.77,9.18,3.25,13.68,5.21,2.1,.91,3.87,2.68,5.83,3.97,2.68,1.82,5.45,3.54,8.46,5.45Zm-51.88-12.77s.05,0,0,0c-1.05,.1-2.25,.05-3.3,.38-7.13,2.1-13.63,5.31-19.18,10.42-4.64,4.26-5.93,9.66-2.87,15.11,2.49,4.45,5.59,8.37,11.24,8.8,6.74,1.2,13.53,2.06,20.23-.33,8.51-1.67,15.83-5.79,21.61-12.15,6.26-6.89,4.45-16.88-4.88-19.65-1.29-.38-2.53-.86-3.78-1.29-6.17-.48-12.29-.96-18.46-1.43-.19,.05-.38,.1-.62,.14Zm-109.6,27.97c4.69,3.59,9.95,6.03,15.73,7.22,12.58,3.87,21.33,2.34,30.65-7.13,3.92-4.02,5.07-10.28,2.2-14.15-3.83-5.07-9.04-8.22-15.49-9.04-4.26-1.63-8.56-3.3-12.82-4.93-7.32-2.3-14.15-1.29-20.9,2.39-4.64,2.53-8.03,6.22-7.89,11.29,.24,5.88,2.63,11.38,8.51,14.35Z"/>
    <path class="cls-6" d="M197.26,52.87c-1.39-.62-2.73-1.29-4.11-1.91-2.73-1.24-5.26-1.58-7.32,1.29-1,1.39-8.61,1.86-9.8,.72-.53-.53-.67-1.43-1-2.15-.57-1.39-.81-3.16-1.82-4.11-1.05-1-3.06-1.91-4.21-1.53-1.2,.38-2.53,2.39-2.58,3.68-.14,5.16-2.73,7.84-6.84,8.66-.38-4.11-.72-8.27-1.29-12.43-.14-.96-.72-2.06-1.43-2.63-.96-.77-2.49-1.72-3.44-1.43-1.1,.33-2.3,1.77-2.58,2.92-1.29,4.88-3.49,9.18-7.89,12.77-.1-1.53,.14-2.96-.33-4.02-1.58-3.4-3.16-6.89-5.36-9.95-1.63-2.34-4.5-1-5.45,2.44-1.58,5.64-3.25,11.29-1,17.55-4.21-1-6.74-3.44-8.66-6.69-.43-.72-.57-1.58-1.1-2.2-.96-1.1-2.06-2.1-3.11-3.11-1.05,1.1-2.39,2.06-3.16,3.35-1.67,2.68-3.54,4.97-7.22,5.79,.19-3.3,.53-6.41,.43-9.52-.05-1.77-.53-3.68-1.24-5.31-.38-.91-1.82-1.96-2.63-1.86-1.05,.14-2.34,1.15-2.87,2.1-1.72,2.96-2.92,6.26-4.73,9.18-1.96,3.11-3.2,3.25-7.08,1.82,.29-5.16,.24-10.38-6.17-12.96,8.61-3.59,17.17-6.46,23.24-13.92,1.67,.57,3.44,1.34,5.31,1.86,10.9,3.16,21.76,3.78,32.57-.29,2.87-1.05,5.79-2.01,8.75-2.77,.72-.19,1.96,.19,2.39,.72,7.56,9.32,18.03,13.15,29.12,15.88,2.39,.57,4.83,1.15,7.27,1.15,2.68-.05,3.59,1.2,4.02,3.49,.33,1.2,.91,2.3,1.34,3.44h0Z"/>
    <path class="cls-6" d="M75.27,45.55c-.24,.96-.53,1.48-.43,1.96,.72,5.45-2.1,6.89-7.03,7.22-2.82,.19-5.5,2.01-8.22,3.11-1,.38-2.06,.77-3.11,1.2,2.68-4.11,5.21-8.08,7.84-12.05,.24-.38,.77-.81,1.15-.86,3.11-.24,6.26-.38,9.8-.57Z"/>
    <path class="cls-6" d="M206.3,93.75c2.3-2.49,4.26-5.21,6.79-7.22,1.53-1.2,3.97-1.29,6.03-1.86,1.24,7.17,.72,9.09-2.63,10.71-3.49,1.72-8.08,.81-10.19-1.63Z"/>
    <path class="cls-6" d="M36.11,103.7c.38-3.68,.77-7.32,1.1-11,.1-1.24,.14-2.49-.1-3.68-.29-1.48-.96-2.92,1.39-3.2,2.01-.24,3.54,.24,3.78,2.53,.38,3.87-.29,7.6-2.44,10.9-1.05,1.63-2.49,2.96-3.73,4.45h0Z"/>
    <path class="cls-4" d="M137.73,64.92c7.94-1.15,12.15-6.79,16.12-13.29,1.63,3.92-1.67,6.31-2.68,9.18-.77,2.3-10.38,4.88-13.44,4.11Z"/>
    <path class="cls-4" d="M117.02,60.9c2.01,1.77,4.06,3.59,6.26,5.5-4.11-.19-8.75-.38-13.34-.62,0-.19,0-.43,.05-.62,1.34-.81,2.73-1.53,4.02-2.39,1.34-.91,2.58-1.96,3.83-2.96-.29,.33-.53,.72-.81,1.1Z"/>
    <path class="cls-4" d="M84.41,54.78c-2.87-.29-5.5-.43-4.83-4.02,.19-.91,1.39-2.39,1.82-2.3,3.44,.72,2.63,3.63,3.01,6.31Z"/>
    <path class="cls-4" d="M135.62,61.14v-10.33c2.49,3.44,1.86,6.89,.86,10.33h-.86Z"/>
    <path class="cls-3" d="M197.88,53.49c.24,.1,.53,.24,.77,.33-.1,.05-.19,.19-.24,.19-.19-.19-.38-.33-.53-.53-.05,0,0,0,0,0Z"/>
    <path class="cls-3" d="M36.11,103.7c-.05,.1-.05,.19-.1,.29-.05,.05-.14,.05-.19,.05,.1-.14,.19-.24,.29-.33h0Z"/>
    <path class="cls-3" d="M197.26,52.87c.19,.19,.43,.43,.62,.62h0c-.24-.19-.43-.43-.62-.62h0Z"/>
    <path class="cls-5" d="M128.11,121.58c-3.44-.91-7.17-1.24-10.28-2.82-5.83-2.92-6.41-7.99-2.15-12.82,4.4-4.93,15.54-6.07,20.75-2.1,2.73,2.1,4.11,4.83,3.59,8.27-.62,4.21-3.73,6.46-7.27,8.03-1.34,.62-2.96,.67-4.45,.96-.05,.19-.1,.33-.19,.48Z"/>
    <path class="cls-9" d="M176.13,97.19c-6.69,2.39-13.44,1.58-20.23,.33-.53-4.4,1.82-7.7,4.73-10.23,3.78-3.3,4.97-7.08,4.35-11.76-.43-3.2,.53-6.07,2.39-8.7,.91-1.29,1.72-2.73,2.58-4.06l-.05,.05c.19-.05,.43-.1,.62-.14,6.17,.48,12.29,.96,18.46,1.43-.62,1.2-1.34,2.39-1.91,3.59-1.63,3.44-4.35,6.89-4.5,10.42-.14,4.3-1.48,7.46-3.73,10.9-1.39,2.39-1.82,5.45-2.73,8.18Z"/>
    <path class="cls-1" d="M93.49,67.69c6.46,.81,11.67,3.97,15.49,9.04,2.87,3.83,1.72,10.14-2.2,14.15-9.32,9.47-18.08,11-30.65,7.13,1.86-1.48,3.59-3.3,5.69-4.45,4.3-2.34,6.26-6.03,5.79-11-.33-3.83,.1-7.41,3.54-10.19,1.24-1,1.58-3.06,2.34-4.69Z"/>
    <path class="cls-9" d="M93.49,67.69c-.77,1.58-1.1,3.68-2.34,4.69-3.44,2.77-3.87,6.36-3.54,10.19,.48,4.97-1.48,8.66-5.79,11-2.1,1.15-3.78,2.96-5.69,4.45-5.79-1.2-11.05-3.63-15.73-7.22,1.1-1.29,1.96-3.25,3.35-3.83,6.12-2.63,10.38-6.36,9.9-13.63-.05-.57,.14-1.24,.38-1.77,1.39-3.54,2.3-7.51,6.69-8.75,4.21,1.63,8.51,3.25,12.77,4.88Z"/>
    <path class="cls-1" d="M170,62.81c-.86,1.34-1.67,2.77-2.58,4.06-1.86,2.63-2.77,5.5-2.39,8.7,.57,4.69-.57,8.46-4.35,11.76-2.92,2.53-5.26,5.83-4.73,10.23-5.69-.48-8.8-4.4-11.24-8.8-3.06-5.45-1.77-10.86,2.87-15.11,5.55-5.12,12.05-8.32,19.18-10.42,1-.38,2.15-.33,3.25-.43Z"/>
    <path class="cls-1" d="M80.68,62.76c-4.45,1.24-5.31,5.16-6.69,8.75-.24,.57-.43,1.2-.38,1.77,.48,7.32-3.73,11.05-9.9,13.63-1.39,.57-2.25,2.53-3.35,3.83-5.88-3.01-8.27-8.46-8.46-14.35-.14-5.02,3.25-8.7,7.89-11.29,6.74-3.63,13.58-4.64,20.9-2.34Z"/>
    <path class="cls-1" d="M176.13,97.19c.91-2.73,1.29-5.83,2.82-8.18,2.2-3.4,3.54-6.6,3.73-10.9,.14-3.54,2.87-6.98,4.5-10.42,.57-1.24,1.29-2.39,1.91-3.59,1.24,.43,2.53,.91,3.78,1.29,9.32,2.77,11.14,12.72,4.88,19.65-5.79,6.36-13.05,10.47-21.61,12.15Z"/>
    <path class="cls-1" d="M170.63,62.67c-.19,.05-.43,.1-.62,.14,.19-.05,.38-.1,.62-.14Z"/>
    <path class="cls-2" d="M101.43,217.46c-1.91,1.67-2.34,4.64-.53,6.79,1.67,1.96,2.3,3.92,2.25,6.41-.05,2.25,2.77,5.59,4.21,4.93,1.91-.86,3.35-2.63,4.88-4.16,.33-.29-.05-1.24,.19-1.77,.48-1.2,1.29-2.3,1.72-3.54,.67-1.96,1.96-4.11,1.58-5.88-.33-1.63-1.05-3.11-1.15-5.02-.57-9.99-1.48-19.94-2.3-29.94,.43-.19,.86-.43,1.34-.57-1.53-1.77-2.77-3.92-4.64-5.21-2.44-1.63-4.78-.24-6.46,1.77-1.63,1.96-2.63,4.16-1,6.74,.67,1.1,1.34,2.34,1.43,3.59,.33,5.69,.53,11.38,.67,17.07,.1,3.06,.77,6.17-2.2,8.8Zm6.07-26.11c.19,.05,.43,.1,.62,.14,.62,7.7,1.24,15.45,1.96,24.05-1-1.05-1.91-1.53-1.96-2.1-.53-6.17-.96-12.34-1.29-18.55-.05-1.15,.43-2.34,.67-3.54Zm2.2,28.88c.62,.33,1.29,1.29,1.15,1.82-.14,.57-1.2,1.24-1.82,1.2-1.48-.05-2.92-.53-5.16-.96,2.06-2.44,3.73-3.3,5.83-2.06Z"/>
    <path class="cls-6" d="M108.13,191.5c.62,7.75,1.24,15.45,1.96,24.1-1-1.05-1.91-1.53-1.96-2.1-.53-6.17-.96-12.39-1.29-18.55-.05-1.15,.43-2.39,.67-3.54,.19,0,.38,.05,.62,.1Z"/>
    <path class="cls-6" d="M103.88,222.29c2.06-2.44,3.68-3.3,5.83-2.06,.57,.33,1.24,1.34,1.15,1.82-.14,.53-1.2,1.2-1.82,1.2-1.48-.1-2.92-.53-5.16-.96Z"/>
    <path class="cls-2" d="M142.89,191.69c-.24-.96-.29-2.39-.96-3.44-1.48-2.3-1.34-4.35-.1-6.65,1.48-2.73,3.97-4.11,6.17-3.25,4.21,1.63,5.64,4.06,4.78,7.65-.38,1.53-.14,3.16-.24,4.73-.24,3.16-.48,6.31-.77,9.47-.29,3.06-.81,6.07-.96,9.13-.14,3.11-.53,6.22,2.49,8.66,1.77,1.43,1.53,3.44,.33,5.55-.91,1.63-1.2,3.63-1.58,5.55-.57,2.87-3.06,4.93-5.79,4.54-2.68-.43-3.3-2.63-4.11-4.78-.48-1.24-1.05-2.53-2.01-3.44-2.15-2.01-2.63-4.45-1.39-7.17,.72-1.63,1.2-3.44,1.43-5.21,.77-5.79,1.39-11.57,2.1-17.36,.14-1.15,.33-2.39,.57-3.97Zm5.26-1.05c-.33-.05-.67-.1-1-.14-.38,8.18-3.11,16.16-2.49,24.44,.48,.05,.91,.1,1.39,.1,.72-8.13,1.39-16.26,2.1-24.39Zm-5.83,31.61c3.01-.29,5.31-.48,8.27-.77-2.87-2.87-6.36-2.58-8.27,.77Z"/>
    <path class="cls-6" d="M148.15,190.63c-.67,8.13-1.39,16.26-2.06,24.39-.48-.05-.91-.1-1.39-.1-.67-8.22,2.06-16.26,2.49-24.44,.29,.05,.62,.1,.96,.14Z"/>
    <path class="cls-6" d="M142.32,222.24c1.91-3.35,5.4-3.63,8.27-.77-2.92,.29-5.26,.48-8.27,.77Z"/>
  </g>
</svg>