<?xml version="1.0" encoding="UTF-8"?>
<svg id="Layer_2" data-name="Layer 2" xmlns="http://www.w3.org/2000/svg" viewBox="0 0 253.78 235.73">
  <defs>
    <style>
      .cls-1 {
        fill: #030101;
      }

      .cls-2 {
        fill: #010100;
      }

      .cls-3 {
        fill: #050404;
      }

      .cls-4 {
        fill: #802a16;
      }

      .cls-5 {
        fill: #e4bd95;
      }

      .cls-6 {
        fill: #070605;
      }

      .cls-7 {
        fill: #922724;
      }

      .cls-8 {
        fill: #060302;
      }

      .cls-9 {
        fill: #e6be97;
      }

      .cls-10 {
        fill: #9a9999;
      }

      .cls-11 {
        fill: #040403;
      }

      .cls-12 {
        fill: #aa2316;
      }
    </style>
  </defs>
  <g id="Layer_1-2" data-name="Layer 1">
    <path class="cls-11" d="M74.59,206.85c.1-.76-.71-1.57-1.14-2.38-.9,.52-2.14,.86-2.57,1.62-.76,1.43-1.14,3.05-1.48,4.67-1.8,8.97-5.8,16.77-10.82,24.15,1.76,.03,3.52,.06,5.28,.09,4.54-7.07,8.3-14.52,9.68-23.09,.29-1.67,.9-3.33,1.05-5.05Z"/>
    <path class="cls-11" d="M32.35,187.2c-5.44,5.1-10.07,11.1-13.71,18.22-2.24,4.33-5,8.43-8.14,12.14-4.31,5.05-7.9,10.48-10.49,16.52,.43,.03,.85,.05,1.29,.07l31.06-46.97Z"/>
    <path class="cls-11" d="M221.41,193.28c-3.71-2.76-6.86-6.24-10.05-9.62-4.81-5.1-9.38-10.48-15.95-13.43-1.62-.76-3.29-1.29-5.38-2.1,1.05-.48,1.43-.71,1.9-.86,10.14-3.52,19.38-8.95,28.24-14.76,8.95-5.86,16.48-13.48,22.81-22.19,7.67-10.57,11.95-22,10.52-35.24-1.1-9.91-4.86-18.81-10.14-27.05-7-10.91-15.57-20.53-25.38-29.05-9.43-8.19-19.67-15.05-30.91-20.67-11.52-5.76-24.1-8-36.15-11.91-6.71-2.19-13.43-4.24-20.19-6.29-.86-.24-1.95-.1-2.81,.19-3.57,1.14-7,2.62-10.57,3.57-9.81,2.62-19.76,4.81-29.57,7.57-11.33,3.19-22.53,7.29-32.43,13.57-16.72,10.62-32.34,22.67-43.76,39.34-4.33,6.33-7.67,13.05-9.33,20.48C-.98,99.27-.17,113.27,7.3,126.56c4.71,8.33,10.1,16.1,16.72,23,8.05,8.33,17.29,14.91,28.14,19.05,2.29,.86,4.57,1.67,7.29,2.67-1.81,.43-3.14,.57-4.33,1.1-8.54,3.9-16.24,8.71-22.77,14.83L1.29,234.16c1.2,.06,2.42,.08,3.65,.07,2.02-4.4,5.13-8.41,7.85-12.53,4.19-6.38,9.29-12.29,12.81-19,3.24-6.19,7.95-10.71,13.05-14.86,4.71-3.81,9.95-7.24,15.38-9.95,3.91-1.95,8.48-2.86,12.86-3.57,2.29-.38,3.38-1.62,3.71-3.33,.1-.52-1.95-2-3.19-2.29-12.52-2.81-23.76-7.95-33.67-16.33-10.19-8.57-18-18.86-24-30.67-4.48-8.86-5.43-18.19-4.52-27.95,1.24-13.86,7.52-25.29,16.52-35.43,9.14-10.29,19.95-18.76,31.24-26.57,8.62-5.95,18.14-10.43,28.14-13.38,12.14-3.62,24.48-6.38,36.72-9.57,2.1-.52,4.33-.86,6.14-1.9,3.43-1.95,6.71-1.62,10.29-.52,8.86,2.71,17.67,5.91,26.72,7.81,16.91,3.52,31.72,11.1,45.48,21.24,12.91,9.48,23.91,20.76,32.53,34.15,5.43,8.38,9.19,17.48,9.91,27.95,.81,11.86-3.19,21.43-9.91,30.53-5.33,7.19-11.52,13.57-18.72,18.86-8.81,6.43-18.48,11.48-28.62,15.67-2.76,1.14-5.33,3-7.52,5-1.48,1.33-.52,3.76,1.48,4.14,10.81,2.14,17.81,9.52,24.57,17.38,2.76,3.19,5.95,6.29,9.48,8.62,5.86,3.91,9.86,9.38,13.05,15.24,3.68,6.8,7.08,13.75,10.4,20.76,1.03-.07,2.07-.13,3.1-.2,.8-.05,1.61-.09,2.41-.12-3.48-8.14-7.36-16.11-12.29-23.53-4.14-6.29-8.76-12-14.91-16.57Z"/>
    <path class="cls-11" d="M186.93,215.71c-2.1-4.43-3.57-9.14-5.52-13.62-.48-1.05-1.9-1.71-2.86-2.52-.48,1.29-1.52,2.76-1.24,3.91,2.29,8.76,5.76,17.05,11.76,24,2.46,2.83,5.24,5.4,7.67,8.26,1.9-.05,3.79-.1,5.69-.16-1.19-1.83-2.52-3.58-4.07-5.2-4.33-4.52-8.71-8.95-11.43-14.67Z"/>
    <path class="cls-8" d="M63.49,41.17c13.1,.43,23.91-3.24,33.76-10,2.24-1.57,4.14-3.67,6.1-5.62,1.33-1.33,2.57-1.48,4.38-.71,11.29,4.67,22.72,6.29,34.48,1.62,3.19-1.29,6.52-2.33,9.86-3.29,2.14-.62,4.05,.1,5.48,1.9,6.95,8.86,16.86,12.62,27.24,15.33,2.9,.76,6,.9,9,1.14,2.76,.19,4.33,1.71,5,4.19,1.86,6.76,5.48,12.43,10.95,16.62,4.19,3.19,8.81,5.91,13.29,8.67,2.14,1.33,3.14,2.48,2.24,5.38-3.38,11-2.48,21.81,2.43,32.19,1.29,2.76,1,4.57-1.62,6.33-8.86,6.14-15.14,14.24-18.29,24.62-1.14,3.81-3.48,5.48-7.52,6.48-13,3.1-24.1,9.48-31.57,21-1.95,3-4.14,4.33-7.86,4.67-10.67,1-20.62,4.33-29,11.33-2.38,2-3.81,1.71-6.48-.14-5.1-3.48-10.76-6.33-16.57-8.52-3.67-1.38-8.1-1.76-12.05-1.24-7.33,.95-12.33-2.33-16.95-7.14-5-5.19-10.48-9.86-17.24-12.67-2.9-1.19-6-1.81-9.1-2.57-2.24-.57-3.95-1.29-5.1-3.71-4.38-9.52-9.48-18.52-18.67-24.48-4.19-2.71-4-3.48-2.33-8.1,3.14-8.81,5.95-17.81,4.67-27.38-.38-3-1.29-6-2.05-8.95-.71-2.67,0-4.1,2.62-5.62,4.1-2.38,7.52-5.81,11.43-8.62,7.38-5.33,11.67-13.05,16.62-20.33,.86-1.19,2.33-2,2.86-2.38Zm133.44,12.1c-.19-.19-.43-.43-.62-.62-.43-1.14-1-2.24-1.19-3.38-.43-2.29-1.38-3.52-4-3.48-2.43,0-4.86-.52-7.24-1.14-11.05-2.71-21.53-6.52-29-15.81-.43-.57-1.71-.9-2.38-.71-2.95,.76-5.86,1.71-8.71,2.76-10.81,4.05-21.62,3.43-32.43,.29-1.86-.52-3.62-1.24-5.29-1.86-6.05,7.38-14.62,10.24-23.14,13.86,6.38,2.57,6.43,7.76,6.14,12.91,3.86,1.38,5.1,1.29,7.05-1.81,1.81-2.86,3-6.19,4.71-9.14,.57-1,1.81-2,2.86-2.1,.81-.1,2.24,.95,2.62,1.86,.71,1.62,1.19,3.52,1.24,5.29,.1,3.1-.24,6.14-.43,9.48,3.67-.81,5.52-3.1,7.19-5.76,.81-1.29,2.1-2.24,3.14-3.33,1.05,1.05,2.14,2,3.1,3.1,.52,.62,.71,1.48,1.1,2.19,1.9,3.24,4.38,5.67,8.62,6.67-2.24-6.24-.57-11.86,1-17.48,.95-3.43,3.81-4.76,5.43-2.43,2.14,3.05,3.71,6.52,5.33,9.91,.48,1.05,.24,2.43,.33,4,4.38-3.57,6.57-7.86,7.86-12.72,.33-1.19,1.52-2.62,2.57-2.9,.95-.29,2.43,.67,3.43,1.43,.71,.57,1.33,1.71,1.43,2.62,.52,4.14,.86,8.29,1.29,12.38,4.1-.81,6.67-3.48,6.81-8.62,.05-1.33,1.38-3.29,2.57-3.67,1.14-.38,3.14,.57,4.19,1.52,1,.95,1.24,2.67,1.81,4.1,.33,.71,.48,1.62,1,2.14,1.19,1.19,8.76,.67,9.76-.71,2.1-2.86,4.57-2.52,7.29-1.29,1.38,.62,2.76,1.29,4.1,1.9,.05,.14,.24,.38,.48,.57,.19,.19,.38,.33,.57,.52,0,0,.14-.14,.24-.19-.29-.14-.57-.24-.81-.33ZM35.82,103.27c1.24-1.48,2.62-2.81,3.67-4.43,2.14-3.29,2.76-7,2.43-10.86-.24-2.29-1.76-2.76-3.76-2.52-2.33,.29-1.67,1.71-1.38,3.19,.24,1.19,.19,2.48,.1,3.67-.29,3.62-.71,7.29-1.05,10.95-.14,.1-.24,.19-.33,.29,.1,0,.19,0,.19-.05,.1-.05,.14-.14,.14-.24Zm16.81,42.19c3.81,1.14,7.24,1.86,10.48,3.19,9.67,3.95,17.1,11.1,24.33,18.33,2.05,2.05,4.14,2.19,6.52,2.33,5.57,.29,11.19,.19,16.76,.71,3.81,.38,7.48,1.95,11.29,2.29,4.86,.38,9.76,.29,14.62-.05,2.9-.19,5.71-1.14,8.62-1.71,5.14-1.05,10.33-2.05,15.48-3.19,1.19-.29,2.48-.86,3.29-1.71,1.52-1.71,2.57-3.86,4.1-5.57,8-8.86,17.62-15.14,29.34-17.81,3.33-.76,5.43-1.71,6.67-5.52,1.57-4.81,4.29-9.48,7.33-13.52,3.43-4.57,7.86-8.48,11.81-12.67-1.05-3.14-2.33-6.91-3.76-11.05-7.24,3.48-14,1.86-19.53-2.76-3.86,1.9-7.1,3.57-10.43,5.14-10.14,4.81-20.76,7.52-31.95,5.05-5.48-1.19-11.1-2.57-14.76-7.76-3.95-5.62-8.43-10.19-16.48-9.43-6.24,.57-11.48,1.9-15.14,7.48-2.52,3.81-5.81,6.95-10.52,8.48-6.91,2.29-13.72,3.48-21,2.19-9.67-1.71-18.67-4.81-26.72-10.52-1.95-1.38-3.67-3.1-5.57-4.76-2.29,8.19-5.71,14.24-10.57,17.29-3.24,2-5.33,4.38-5.62,8.43,10.76,6.43,16.86,16.72,21.43,27.14ZM220.79,75.27c-3-1.9-5.76-3.67-8.43-5.43-1.95-1.29-3.67-3.05-5.81-3.95-4.43-1.95-9.1-3.43-13.62-5.19-8.81-3.48-17.72-4.33-26.76-1.24-3.67,1.24-7.33,2.71-10.81,4.38-6.86,3.33-13.57,6.81-21.53,6.24-1.29-.1-2.62,.14-3.91,.24-10.67,.52-21.19,1.24-31-4.71-5.43-3.29-11.38-5.71-17.91-6.95-9.14-1.71-17.19,.95-25.19,4.62-3.24,1.48-6.57,2.76-9.57,4.67-3.52,2.24-6.71,5-9.95,7.67-.81,.71-1.57,2.1-1.48,3.1,.05,.67,1.67,1.71,2.57,1.71,4.05,.14,7.1,1.76,9.81,4.81,5.14,5.71,10.76,10.86,18.33,13.62,8.67,3.14,17.29,5.81,26.62,4.29,5.38-.9,10.52-2.48,13.91-7.05,3.81-5.14,8.1-8.91,14.72-10.67,7.05-1.86,18.43,.19,22.67,7.1,3.67,6,9.33,8.95,16.19,10,7.48,1.19,14.72,.05,21.72-2.52,4.43-1.62,8.95-3.19,12.81-5.76,4.05-2.71,7.62-6.29,10.81-10,2.9-3.33,6.29-4.29,10.33-4.33,4.52,0,4.52-.05,5.48-4.62ZM74.83,45.36c-3.52,.19-6.67,.33-9.81,.57-.43,.05-.9,.48-1.14,.86-2.57,3.95-5.14,7.91-7.81,12,1.05-.43,2.1-.81,3.1-1.19,2.71-1.1,5.43-2.9,8.19-3.1,4.91-.33,7.76-1.76,7-7.19-.05-.48,.24-1,.48-1.95Zm130.48,48c2.1,2.43,6.67,3.29,10.14,1.57,3.33-1.62,3.86-3.52,2.62-10.67-2.05,.57-4.48,.67-6,1.86-2.52,2.05-4.48,4.76-6.76,7.24Zm-68.29-28.72c3.05,.71,12.62-1.81,13.38-4.1,.95-2.86,4.29-5.24,2.67-9.14-3.95,6.48-8.14,12.1-16.05,13.24Zm-20.62-4c.29-.38,.52-.76,.81-1.1-1.29,1-2.48,2.05-3.81,2.95-1.29,.86-2.67,1.62-4,2.38,0,.19,0,.43-.05,.62,4.57,.19,9.19,.43,13.29,.62-2.19-1.95-4.19-3.71-6.24-5.48Zm-32.48-6.1c-.38-2.67,.43-5.57-2.95-6.29-.48-.1-1.67,1.38-1.81,2.29-.71,3.57,1.86,3.71,4.76,4Zm51,6.33h.86c1-3.43,1.62-6.86-.86-10.29v10.29Z"/>
    <path class="cls-9" d="M53.2,145.61c-4.57-10.43-10.67-20.76-21.43-27.29,.29-4.05,2.38-6.43,5.62-8.43,4.86-3.05,8.29-9.1,10.57-17.29,1.9,1.62,3.62,3.38,5.57,4.76,8,5.71,17.05,8.86,26.72,10.52,7.29,1.29,14.1,.1,21-2.19,4.71-1.52,8-4.67,10.52-8.48,3.71-5.57,8.91-6.91,15.14-7.48,8.05-.76,12.52,3.81,16.48,9.43,3.67,5.19,9.29,6.52,14.76,7.76,11.24,2.48,21.81-.29,31.95-5.05,3.29-1.57,6.57-3.24,10.43-5.14,5.52,4.62,12.33,6.24,19.53,2.76,1.43,4.14,2.71,7.95,3.76,11.05-4,4.19-8.38,8.1-11.81,12.67-3.05,4.1-5.76,8.71-7.33,13.52-1.24,3.81-3.33,4.76-6.67,5.52-11.72,2.67-21.33,9-29.34,17.81-1.52,1.71-2.57,3.86-4.1,5.57-.76,.86-2.1,1.48-3.29,1.71-5.14,1.14-10.33,2.14-15.48,3.19-2.86,.57-5.71,1.52-8.62,1.71-4.86,.29-9.81,.43-14.62,.05-3.81-.33-7.48-1.9-11.29-2.29-5.57-.52-11.19-.43-16.76-.71-2.38-.1-4.52-.29-6.52-2.33-7.24-7.24-14.67-14.38-24.33-18.33-3.19-1.14-6.67-1.9-10.48-3.05Zm74.81-24.38c.1-.14,.14-.33,.24-.48,1.48-.29,3.05-.33,4.43-.95,3.57-1.57,6.67-3.81,7.24-8,.48-3.38-.86-6.14-3.57-8.24-5.19-3.95-16.33-2.81-20.67,2.1-4.29,4.81-3.67,9.81,2.14,12.76,3.05,1.57,6.76,1.9,10.19,2.81Zm34.94,28.24c-5.33-.1-68.43-.46-63.77-1.36-.67,.67,56.13-15.37,55.94-14.18,1.19-.05-25.49,12.3-24.44,11.87,1.71-.71,3.19-2.24,4.95-2.86,6.19-2.1,11.95-1.1,17.14,3.1,.67,.57,1.9,.43,2.9,.62,.1-1.24,.43-2.52,.29-3.76-.1-.67-.9-1.33-1.52-1.76-4.1-2.81,13.42,8.48,8.51,8.34Z"/>
    <path class="cls-12" d="M220.79,75.27q-.9,4.57-5.43,4.62c-4.05,.05-7.43,1-10.33,4.33-3.19,3.71-6.76,7.29-10.81,10-3.86,2.57-8.43,4.19-12.81,5.76-7,2.52-14.24,3.67-21.72,2.52-6.86-1.05-12.48-4-16.19-10-4.24-6.91-15.62-8.95-22.67-7.1-6.67,1.76-10.95,5.52-14.76,10.67-3.38,4.57-8.57,6.14-13.91,7.05-9.33,1.52-17.95-1.1-26.62-4.29-7.57-2.76-13.14-7.91-18.33-13.62-2.76-3.05-5.81-4.62-9.81-4.81-.95-.05-2.52-1.05-2.57-1.71-.1-1,.67-2.38,1.48-3.1,3.19-2.71,6.43-5.43,9.95-7.67,2.95-1.9,6.33-3.19,9.57-4.67,8-3.67,16.05-6.33,25.19-4.62,6.48,1.19,12.43,3.62,17.91,6.95,9.81,5.95,20.38,5.24,31,4.71,1.29-.05,2.62-.33,3.91-.24,7.95,.57,14.72-2.9,21.53-6.24,3.48-1.71,7.14-3.14,10.81-4.38,9.05-3.1,17.95-2.24,26.76,1.24,4.52,1.76,9.14,3.24,13.62,5.19,2.1,.9,3.86,2.67,5.81,3.95,2.67,1.81,5.43,3.52,8.43,5.43Zm-51.67-12.72s.05,0,0,0c-1.05,.1-2.24,.05-3.29,.38-7.1,2.1-13.57,5.29-19.1,10.38-4.62,4.24-5.91,9.62-2.86,15.05,2.48,4.43,5.57,8.33,11.19,8.76,6.71,1.19,13.48,2.05,20.14-.33,8.48-1.67,15.76-5.76,21.53-12.1,6.24-6.86,4.43-16.81-4.86-19.57-1.29-.38-2.52-.86-3.76-1.29-6.14-.48-12.24-.95-18.38-1.43-.19,.05-.38,.1-.62,.14Zm-109.15,27.86c4.67,3.57,9.91,6,15.67,7.19,12.52,3.86,21.24,2.33,30.53-7.1,3.91-4,5.05-10.24,2.19-14.1-3.81-5.05-9-8.19-15.43-9-4.24-1.62-8.52-3.29-12.76-4.91-7.29-2.29-14.1-1.29-20.81,2.38-4.62,2.52-8,6.19-7.86,11.24,.24,5.86,2.62,11.33,8.48,14.29Z"/>
    <path class="cls-7" d="M196.31,52.65c-1.38-.62-2.71-1.29-4.1-1.9-2.71-1.24-5.24-1.57-7.29,1.29-1,1.38-8.57,1.86-9.76,.71-.52-.52-.67-1.43-1-2.14-.57-1.38-.81-3.14-1.81-4.1-1.05-1-3.05-1.9-4.19-1.52-1.19,.38-2.52,2.38-2.57,3.67-.14,5.14-2.71,7.81-6.81,8.62-.38-4.1-.71-8.24-1.29-12.38-.14-.95-.71-2.05-1.43-2.62-.95-.76-2.48-1.71-3.43-1.43-1.1,.33-2.29,1.76-2.57,2.9-1.29,4.86-3.48,9.14-7.86,12.72-.1-1.52,.14-2.95-.33-4-1.57-3.38-3.14-6.86-5.33-9.91-1.62-2.33-4.48-1-5.43,2.43-1.57,5.62-3.24,11.24-1,17.48-4.19-1-6.71-3.43-8.62-6.67-.43-.71-.57-1.57-1.1-2.19-.95-1.1-2.05-2.1-3.1-3.1-1.05,1.1-2.38,2.05-3.14,3.33-1.67,2.67-3.52,4.95-7.19,5.76,.19-3.29,.52-6.38,.43-9.48-.05-1.76-.52-3.67-1.24-5.29-.38-.9-1.81-1.95-2.62-1.86-1.05,.14-2.33,1.14-2.86,2.1-1.71,2.95-2.9,6.24-4.71,9.14-1.95,3.1-3.19,3.24-7.05,1.81,.29-5.14,.24-10.33-6.14-12.91,8.57-3.57,17.1-6.43,23.14-13.86,1.67,.57,3.43,1.33,5.29,1.86,10.86,3.14,21.67,3.76,32.43-.29,2.86-1.05,5.76-2,8.71-2.76,.71-.19,1.95,.19,2.38,.71,7.52,9.29,17.95,13.1,29,15.81,2.38,.57,4.81,1.14,7.24,1.14,2.67-.05,3.57,1.19,4,3.48,.33,1.19,.9,2.29,1.33,3.43h0Z"/>
    <path class="cls-7" d="M74.83,45.36c-.24,.95-.52,1.48-.43,1.95,.71,5.43-2.1,6.86-7,7.19-2.81,.19-5.48,2-8.19,3.1-1,.38-2.05,.76-3.1,1.19,2.67-4.1,5.19-8.05,7.81-12,.24-.38,.76-.81,1.14-.86,3.1-.24,6.24-.38,9.76-.57Z"/>
    <path class="cls-7" d="M205.31,93.36c2.29-2.48,4.24-5.19,6.76-7.19,1.52-1.19,3.95-1.29,6-1.86,1.24,7.14,.71,9.05-2.62,10.67-3.48,1.71-8.05,.81-10.14-1.62Z"/>
    <path class="cls-7" d="M35.82,103.27c.38-3.67,.76-7.29,1.1-10.95,.1-1.24,.14-2.48-.1-3.67-.29-1.48-.95-2.9,1.38-3.19,2-.24,3.52,.24,3.76,2.52,.38,3.86-.29,7.57-2.43,10.86-1.05,1.62-2.48,2.95-3.71,4.43h0Z"/>
    <path class="cls-5" d="M137.02,64.65c7.91-1.14,12.1-6.76,16.05-13.24,1.62,3.91-1.67,6.29-2.67,9.14-.76,2.29-10.33,4.86-13.38,4.1Z"/>
    <path class="cls-5" d="M116.4,60.65c2,1.76,4.05,3.57,6.24,5.48-4.1-.19-8.71-.38-13.29-.62,0-.19,0-.43,.05-.62,1.33-.81,2.71-1.52,4-2.38,1.33-.9,2.57-1.95,3.81-2.95-.29,.33-.52,.71-.81,1.1Z"/>
    <path class="cls-5" d="M83.92,54.55c-2.86-.29-5.48-.43-4.81-4,.19-.9,1.38-2.38,1.81-2.29,3.43,.71,2.62,3.62,3,6.29Z"/>
    <path class="cls-5" d="M134.93,60.89v-10.29c2.48,3.43,1.86,6.86,.86,10.29h-.86Z"/>
    <path class="cls-4" d="M196.93,53.27c.24,.1,.52,.24,.76,.33-.1,.05-.19,.19-.24,.19-.19-.19-.38-.33-.52-.52-.05,0,0,0,0,0Z"/>
    <path class="cls-4" d="M35.82,103.27c-.05,.1-.05,.19-.1,.29-.05,.05-.14,.05-.19,.05,.1-.14,.19-.24,.29-.33h0Z"/>
    <path class="cls-4" d="M196.31,52.65c.19,.19,.43,.43,.62,.62h0c-.24-.19-.43-.43-.62-.62h0Z"/>
    <path class="cls-6" d="M127.45,121.08c-3.43-.9-7.14-1.24-10.24-2.81-5.81-2.9-6.38-7.95-2.14-12.76,4.38-4.91,15.48-6.05,20.67-2.1,2.71,2.1,4.1,4.81,3.57,8.24-.62,4.19-3.71,6.43-7.24,8-1.33,.62-2.95,.67-4.43,.95-.05,.19-.1,.33-.19,.48Z"/>
    <path class="cls-10" d="M175.26,96.79c-6.67,2.38-13.38,1.57-20.14,.33-.52-4.38,1.81-7.67,4.71-10.19,3.76-3.29,4.95-7.05,4.33-11.72-.43-3.19,.52-6.05,2.38-8.67,.9-1.29,1.71-2.71,2.57-4.05l-.05,.05c.19-.05,.43-.1,.62-.14,6.14,.48,12.24,.95,18.38,1.43-.62,1.19-1.33,2.38-1.9,3.57-1.62,3.43-4.33,6.86-4.48,10.38-.14,4.29-1.48,7.43-3.71,10.86-1.38,2.38-1.81,5.43-2.71,8.14Z"/>
    <path class="cls-1" d="M92.97,67.41c6.43,.81,11.62,3.95,15.43,9,2.86,3.81,1.71,10.1-2.19,14.1-9.29,9.43-18,10.95-30.53,7.1,1.86-1.48,3.57-3.29,5.67-4.43,4.29-2.33,6.24-6,5.76-10.95-.33-3.81,.1-7.38,3.52-10.14,1.24-1,1.57-3.05,2.33-4.67Z"/>
    <path class="cls-10" d="M92.97,67.41c-.76,1.57-1.1,3.67-2.33,4.67-3.43,2.76-3.86,6.33-3.52,10.14,.48,4.95-1.48,8.62-5.76,10.95-2.1,1.14-3.76,2.95-5.67,4.43-5.76-1.19-11-3.62-15.67-7.19,1.1-1.29,1.95-3.24,3.33-3.81,6.1-2.62,10.33-6.33,9.86-13.57-.05-.57,.14-1.24,.38-1.76,1.38-3.52,2.29-7.48,6.67-8.71,4.19,1.62,8.48,3.24,12.72,4.86Z"/>
    <path class="cls-1" d="M169.17,62.55c-.86,1.33-1.67,2.76-2.57,4.05-1.86,2.62-2.76,5.48-2.38,8.67,.57,4.67-.57,8.43-4.33,11.72-2.9,2.52-5.24,5.81-4.71,10.19-5.67-.48-8.76-4.38-11.19-8.76-3.05-5.43-1.76-10.81,2.86-15.05,5.52-5.1,12-8.29,19.1-10.38,1-.38,2.14-.33,3.24-.43Z"/>
    <path class="cls-1" d="M80.21,62.51c-4.43,1.24-5.29,5.14-6.67,8.71-.24,.57-.43,1.19-.38,1.76,.48,7.29-3.71,11-9.86,13.57-1.38,.57-2.24,2.52-3.33,3.81-5.86-3-8.24-8.43-8.43-14.29-.14-5,3.24-8.67,7.86-11.24,6.71-3.62,13.52-4.62,20.81-2.33Z"/>
    <path class="cls-1" d="M175.26,96.79c.9-2.71,1.29-5.81,2.81-8.14,2.19-3.38,3.52-6.57,3.71-10.86,.14-3.52,2.86-6.95,4.48-10.38,.57-1.24,1.29-2.38,1.9-3.57,1.24,.43,2.52,.9,3.76,1.29,9.29,2.76,11.1,12.67,4.86,19.57-5.76,6.33-13,10.43-21.53,12.1Z"/>
    <path class="cls-1" d="M169.79,62.41c-.19,.05-.43,.1-.62,.14,.19-.05,.38-.1,.62-.14Z"/>
    <path class="cls-2" d="M100.88,216.56c-1.9,1.67-2.33,4.62-.52,6.76,1.67,1.95,2.29,3.91,2.24,6.38-.05,2.24,2.76,5.57,4.19,4.91,1.9-.86,3.33-2.62,4.86-4.14,.33-.29-.05-1.24,.19-1.76,.48-1.19,1.29-2.29,1.71-3.52,.67-1.95,1.95-4.1,1.57-5.86-.33-1.62-1.05-3.1-1.14-5-.57-9.95-1.48-19.86-2.29-29.81,.43-.19,.86-.43,1.33-.57-1.52-1.76-2.76-3.91-4.62-5.19-2.43-1.62-4.76-.24-6.43,1.76-1.62,1.95-2.62,4.14-1,6.71,.67,1.1,1.33,2.33,1.43,3.57,.33,5.67,.52,11.33,.67,17,.1,3.05,.76,6.14-2.19,8.76Zm6.05-26c.19,.05,.43,.1,.62,.14,.62,7.67,1.24,15.38,1.95,23.95-1-1.05-1.9-1.52-1.95-2.1-.52-6.14-.95-12.29-1.29-18.48-.05-1.14,.43-2.33,.67-3.52Zm2.19,28.76c.62,.33,1.29,1.29,1.14,1.81-.14,.57-1.19,1.24-1.81,1.19-1.48-.05-2.9-.52-5.14-.95,2.05-2.43,3.71-3.29,5.81-2.05Z"/>
    <path class="cls-7" d="M107.54,190.7c.62,7.71,1.24,15.38,1.95,24-1-1.05-1.9-1.52-1.95-2.1-.52-6.14-.95-12.33-1.29-18.48-.05-1.14,.43-2.38,.67-3.52,.19,0,.38,.05,.62,.1Z"/>
    <path class="cls-7" d="M103.31,221.37c2.05-2.43,3.67-3.29,5.81-2.05,.57,.33,1.24,1.33,1.14,1.81-.14,.52-1.19,1.19-1.81,1.19-1.48-.1-2.9-.52-5.14-.95Z"/>
    <path class="cls-2" d="M142.16,190.89c-.24-.95-.29-2.38-.95-3.43-1.48-2.29-1.33-4.33-.1-6.62,1.48-2.71,3.95-4.1,6.14-3.24,4.19,1.62,5.62,4.05,4.76,7.62-.38,1.52-.14,3.14-.24,4.71-.24,3.14-.48,6.29-.76,9.43-.29,3.05-.81,6.05-.95,9.1-.14,3.1-.52,6.19,2.48,8.62,1.76,1.43,1.52,3.43,.33,5.52-.9,1.62-1.19,3.62-1.57,5.52-.57,2.86-3.05,4.91-5.76,4.52-2.67-.43-3.29-2.62-4.1-4.76-.48-1.24-1.05-2.52-2-3.43-2.14-2-2.62-4.43-1.38-7.14,.71-1.62,1.19-3.43,1.43-5.19,.76-5.76,1.38-11.52,2.1-17.29,.14-1.14,.33-2.38,.57-3.95Zm5.24-1.05c-.33-.05-.67-.1-1-.14-.38,8.14-3.1,16.1-2.48,24.33,.48,.05,.9,.1,1.38,.1,.71-8.1,1.38-16.19,2.1-24.29Zm-5.81,31.48c3-.29,5.29-.48,8.24-.76-2.86-2.86-6.33-2.57-8.24,.76Z"/>
    <path class="cls-7" d="M147.4,189.85c-.67,8.1-1.38,16.19-2.05,24.29-.48-.05-.9-.1-1.38-.1-.67-8.19,2.05-16.19,2.48-24.33,.29,.05,.62,.1,.95,.14Z"/>
    <path class="cls-7" d="M141.59,221.33c1.9-3.33,5.38-3.62,8.24-.76-2.9,.29-5.24,.48-8.24,.76Z"/>
    <path class="cls-3" d="M127.42,154.43c-6.26,.13-10.28-3.28-13.7-7.66-.82-1.05-1.4-2.32-1.97-3.55-.62-1.33-1.49-3.11,.43-3.71,.88-.27,2.77,.92,3.41,1.95,2.16,3.47,4.43,6.64,8.52,8.02,5.71,1.93,10.02-.94,13.57-6.14,.71-1.05,1.04-2.43,1.92-3.27,.69-.66,1.96-.72,2.97-1.05,.23,.88,.83,1.86,.63,2.64-1.43,5.71-8.4,13.39-15.78,12.78Z"/>
  </g>
</svg>