<?xml version="1.0" encoding="UTF-8"?>
<svg xmlns="http://www.w3.org/2000/svg" xmlns:xlink="http://www.w3.org/1999/xlink" viewBox="0 0 228.87 83.54">
  <defs>
    <style>
      .cls-1 {
        fill: url(#linear-gradient-2);
      }

      .cls-2 {
        opacity: .7;
      }

      .cls-2, .cls-3, .cls-4 {
        mix-blend-mode: screen;
      }

      .cls-5 {
        stroke-width: 2.05px;
      }

      .cls-5, .cls-6, .cls-7, .cls-8 {
        fill: #fff;
        stroke: #000;
        stroke-miterlimit: 10;
      }

      .cls-9 {
        isolation: isolate;
      }

      .cls-6 {
        stroke-width: 2.1px;
      }

      .cls-10 {
        opacity: .58;
      }

      .cls-11 {
        fill: none;
        stroke: #717171;
        stroke-miterlimit: 1;
        stroke-width: .44px;
      }

      .cls-7 {
        stroke-width: 2px;
      }

      .cls-3 {
        opacity: .49;
      }

      .cls-8 {
        stroke-width: 2.19px;
      }

      .cls-4 {
        opacity: .51;
      }

      .cls-12 {
        fill: #922724;
      }

      .cls-13 {
        fill: url(#linear-gradient);
      }
    </style>
    <linearGradient id="linear-gradient" x1="114.44" y1="74.01" x2="114.44" y2="9.53" gradientUnits="userSpaceOnUse">
      <stop offset="0" stop-color="#0e0e0e"/>
      <stop offset=".5" stop-color="#000"/>
      <stop offset=".52" stop-color="#010101"/>
      <stop offset=".73" stop-color="#0b0b0b"/>
      <stop offset="1" stop-color="#0e0e0e"/>
    </linearGradient>
    <linearGradient id="linear-gradient-2" x1="114.44" y1="9.53" x2="114.44" y2="74.01" gradientUnits="userSpaceOnUse">
      <stop offset="0" stop-color="#fff" stop-opacity=".77"/>
      <stop offset=".2" stop-color="#fff" stop-opacity=".65"/>
      <stop offset=".34" stop-color="#fff" stop-opacity=".65"/>
      <stop offset=".35" stop-color="#fff" stop-opacity=".65"/>
      <stop offset=".37" stop-color="#fff" stop-opacity=".62"/>
      <stop offset=".4" stop-color="#fff" stop-opacity=".53"/>
      <stop offset=".43" stop-color="#fff" stop-opacity=".39"/>
      <stop offset=".47" stop-color="#fff" stop-opacity=".2"/>
      <stop offset=".51" stop-color="#fff" stop-opacity="0"/>
      <stop offset=".59" stop-color="#7d7d7d" stop-opacity=".09"/>
      <stop offset="1" stop-color="#1b1b1b" stop-opacity=".16"/>
    </linearGradient>
  </defs>
  <g class="cls-9">
    <g id="Layer_2" data-name="Layer 2">
      <g id="Layer_1-2" data-name="Layer 1">
        <rect width="228.87" height="83.54" rx="1.87" ry="1.87"/>
        <g>
          <g>
            <path class="cls-12" d="M145.8,10.07l27.94,.25,5.52,10.01c.6,1.14,1.2,3.14,1.49,4.28h.51c.42-1.61,.94-2.93,1.67-4.25l5.29-9.92,27.94,.25-21.57,29.42,23.97,33.9-28.14-.25-8.13-14.4c-.4-.67-.79-2.57-.89-3.04h-.71c-.32,1.03-.94,2.64-1.46,3.49l-8.18,13.78-17.99-.16c-4.27-.04-6.72-4.87-4.23-8.34l18.13-25.23-21.15-29.8Z"/>
            <path class="cls-12" d="M112.09,70.48l.54-58.44c.01-1.36,1.13-2.46,2.49-2.44l24.06,.22c6.17,.06,12.6,.88,17.92,6.75,2.97,3.27,5.48,8.16,5.41,15.7-.05,5.63-1.67,9.14-3.37,11.32-1.78,2.37-4.71,4.25-8.15,4.98v.57c1.13,.68,2.27,1.64,3.05,2.99l10.43,17.3c1.1,1.82-.1,4.26-2.08,4.24l-18.4-.17c-.93,0-1.78-.6-2.19-1.52l-7.62-17.17c-.26-.67-.52-.96-.77-2.01l-.35,.19v.15c-.11,11.19-8.4,20.19-18.52,20.09h0c-1.36-.01-2.46-1.24-2.44-2.75Zm21.12-34.85c-.01,1.36,1.08,2.48,2.44,2.49h0c1.23,.01,3.17-.16,4.51-1.39,.71-.66,1.52-1.89,1.54-3.9,.01-1.43-.33-2.87-1.11-3.83-.7-.87-1.84-1.73-3.6-1.75h-1.23c-1.36-.02-2.48,1.07-2.49,2.43l-.06,5.94Z"/>
            <path class="cls-12" d="M78.48,9.59h20.1c.53,0,.95,.45,.95,1V46.86c0,1.93,.18,4.62,1.92,6.55,1.19,1.35,2.66,1.73,4.4,1.73,2.29,0,3.67-.67,4.49-1.54,1.65-1.73,1.65-5.11,1.65-6.74V10.59c0-.55,.43-1,.95-1h20.19c.53,0,.95,.45,.95,1V48.98c0,5.01-.92,12.33-6.42,18.3-6.23,6.74-16.47,6.55-23.25,6.55-5.59,0-14.33,.87-21.29-7.03-4.77-5.39-5.59-11.46-5.59-16.18V10.59c0-.55,.43-1,.95-1Z"/>
            <path class="cls-12" d="M10.66,9.53H30.92c.16,0,.3,.13,.34,.31l6.05,30.11c.42,2.21,.92,4.14,.92,7.89h.5c.17-4.04,.67-7.41,1.42-10.78l6.05-27.23c.04-.18,.18-.3,.34-.3h15.04c.16,0,.3,.12,.34,.3l6.38,28.96c.5,2.31,1.01,6.55,1.17,9.05h.42c.08-4.14,.59-6.93,1.26-10.3l5.72-27.7c.04-.18,.18-.31,.34-.31h20.34c.24,0,.41,.27,.33,.53l-19.44,63.4c-.05,.16-.18,.27-.33,.27h-17.15c-.16,0-.3-.13-.34-.31l-5.21-25.87c-.5-2.6-.92-5.58-1.09-8.76h-.67c-.08,2.12-.42,6.74-.84,8.76l-5.71,25.88c-.04,.18-.18,.3-.34,.3H30.02c-.15,0-.28-.11-.33-.27L10.33,10.06c-.08-.26,.09-.53,.33-.53Z"/>
          </g>
          <g class="cls-4">
            <path class="cls-13" d="M145.8,10.07l27.94,.25,5.52,10.01c.6,1.14,1.2,3.14,1.49,4.28h.51c.42-1.61,.94-2.93,1.67-4.25l5.29-9.92,27.94,.25-21.57,29.42,23.97,33.9-28.14-.25-8.13-14.4c-.4-.67-.79-2.57-.89-3.04h-.71c-.32,1.03-.94,2.64-1.46,3.49l-8.18,13.78-17.99-.16c-4.27-.04-6.72-4.87-4.23-8.34l18.13-25.23-21.15-29.8Z"/>
            <path class="cls-13" d="M112.09,70.48l.54-58.44c.01-1.36,1.13-2.46,2.49-2.44l24.06,.22c6.17,.06,12.6,.88,17.92,6.75,2.97,3.27,5.48,8.16,5.41,15.7-.05,5.63-1.67,9.14-3.37,11.32-1.78,2.37-4.71,4.25-8.15,4.98v.57c1.13,.68,2.27,1.64,3.05,2.99l10.43,17.3c1.1,1.82-.1,4.26-2.08,4.24l-18.4-.17c-.93,0-1.78-.6-2.19-1.52l-7.62-17.17c-.26-.67-.52-.96-.77-2.01l-.35,.19v.15c-.11,11.19-8.4,20.19-18.52,20.09h0c-1.36-.01-2.46-1.24-2.44-2.75Zm21.12-34.85c-.01,1.36,1.08,2.48,2.44,2.49h0c1.23,.01,3.17-.16,4.51-1.39,.71-.66,1.52-1.89,1.54-3.9,.01-1.43-.33-2.87-1.11-3.83-.7-.87-1.84-1.73-3.6-1.75h-1.23c-1.36-.02-2.48,1.07-2.49,2.43l-.06,5.94Z"/>
            <path class="cls-13" d="M78.48,9.59h20.1c.53,0,.95,.45,.95,1V46.86c0,1.93,.18,4.62,1.92,6.55,1.19,1.35,2.66,1.73,4.4,1.73,2.29,0,3.67-.67,4.49-1.54,1.65-1.73,1.65-5.11,1.65-6.74V10.59c0-.55,.43-1,.95-1h20.19c.53,0,.95,.45,.95,1V48.98c0,5.01-.92,12.33-6.42,18.3-6.23,6.74-16.47,6.55-23.25,6.55-5.59,0-14.33,.87-21.29-7.03-4.77-5.39-5.59-11.46-5.59-16.18V10.59c0-.55,.43-1,.95-1Z"/>
            <path class="cls-13" d="M10.66,9.53H30.92c.16,0,.3,.13,.34,.31l6.05,30.11c.42,2.21,.92,4.14,.92,7.89h.5c.17-4.04,.67-7.41,1.42-10.78l6.05-27.23c.04-.18,.18-.3,.34-.3h15.04c.16,0,.3,.12,.34,.3l6.38,28.96c.5,2.31,1.01,6.55,1.17,9.05h.42c.08-4.14,.59-6.93,1.26-10.3l5.72-27.7c.04-.18,.18-.31,.34-.31h20.34c.24,0,.41,.27,.33,.53l-19.44,63.4c-.05,.16-.18,.27-.33,.27h-17.15c-.16,0-.3-.13-.34-.31l-5.21-25.87c-.5-2.6-.92-5.58-1.09-8.76h-.67c-.08,2.12-.42,6.74-.84,8.76l-5.71,25.88c-.04,.18-.18,.3-.34,.3H30.02c-.15,0-.28-.11-.33-.27L10.33,10.06c-.08-.26,.09-.53,.33-.53Z"/>
          </g>
          <g class="cls-2">
            <path class="cls-1" d="M145.8,10.07l27.94,.25,5.52,10.01c.6,1.14,1.2,3.14,1.49,4.28h.51c.42-1.61,.94-2.93,1.67-4.25l5.29-9.92,27.94,.25-21.57,29.42,23.97,33.9-28.14-.25-8.13-14.4c-.4-.67-.79-2.57-.89-3.04h-.71c-.32,1.03-.94,2.64-1.46,3.49l-8.18,13.78-17.99-.16c-4.27-.04-6.72-4.87-4.23-8.34l18.13-25.23-21.15-29.8Z"/>
            <path class="cls-1" d="M112.09,70.48l.54-58.44c.01-1.36,1.13-2.46,2.49-2.44l24.06,.22c6.17,.06,12.6,.88,17.92,6.75,2.97,3.27,5.48,8.16,5.41,15.7-.05,5.63-1.67,9.14-3.37,11.32-1.78,2.37-4.71,4.25-8.15,4.98v.57c1.13,.68,2.27,1.64,3.05,2.99l10.43,17.3c1.1,1.82-.1,4.26-2.08,4.24l-18.4-.17c-.93,0-1.78-.6-2.19-1.52l-7.62-17.17c-.26-.67-.52-.96-.77-2.01l-.35,.19v.15c-.11,11.19-8.4,20.19-18.52,20.09h0c-1.36-.01-2.46-1.24-2.44-2.75Zm21.12-34.85c-.01,1.36,1.08,2.48,2.44,2.49h0c1.23,.01,3.17-.16,4.51-1.39,.71-.66,1.52-1.89,1.54-3.9,.01-1.43-.33-2.87-1.11-3.83-.7-.87-1.84-1.73-3.6-1.75h-1.23c-1.36-.02-2.48,1.07-2.49,2.43l-.06,5.94Z"/>
            <path class="cls-1" d="M78.48,9.59h20.1c.53,0,.95,.45,.95,1V46.86c0,1.93,.18,4.62,1.92,6.55,1.19,1.35,2.66,1.73,4.4,1.73,2.29,0,3.67-.67,4.49-1.54,1.65-1.73,1.65-5.11,1.65-6.74V10.59c0-.55,.43-1,.95-1h20.19c.53,0,.95,.45,.95,1V48.98c0,5.01-.92,12.33-6.42,18.3-6.23,6.74-16.47,6.55-23.25,6.55-5.59,0-14.33,.87-21.29-7.03-4.77-5.39-5.59-11.46-5.59-16.18V10.59c0-.55,.43-1,.95-1Z"/>
            <path class="cls-1" d="M10.66,9.53H30.92c.16,0,.3,.13,.34,.31l6.05,30.11c.42,2.21,.92,4.14,.92,7.89h.5c.17-4.04,.67-7.41,1.42-10.78l6.05-27.23c.04-.18,.18-.3,.34-.3h15.04c.16,0,.3,.12,.34,.3l6.38,28.96c.5,2.31,1.01,6.55,1.17,9.05h.42c.08-4.14,.59-6.93,1.26-10.3l5.72-27.7c.04-.18,.18-.31,.34-.31h20.34c.24,0,.41,.27,.33,.53l-19.44,63.4c-.05,.16-.18,.27-.33,.27h-17.15c-.16,0-.3-.13-.34-.31l-5.21-25.87c-.5-2.6-.92-5.58-1.09-8.76h-.67c-.08,2.12-.42,6.74-.84,8.76l-5.71,25.88c-.04,.18-.18,.3-.34,.3H30.02c-.15,0-.28-.11-.33-.27L10.33,10.06c-.08-.26,.09-.53,.33-.53Z"/>
          </g>
          <g class="cls-3">
            <path d="M190.57,73.22c-1.53-2.7-3.05-5.4-4.58-8.1l-2.78-4.92c-.56-.99-1-1.83-1.28-2.96-.11-.44-.11-1.28-.48-1.46-.2-.09-.86-.06-.98,.03-.31,.23-.48,1.41-.63,1.79-.25,.62-.52,1.22-.85,1.79-.54,.94-1.11,1.87-1.66,2.8l-5.97,10.06c-.43,.73-.35,.79-1.18,.78l-4.81-.04-11.49-.1c-1.73-.02-3.36-.33-4.56-1.73-1.58-1.85-1.38-4.09-.04-5.97,1.65-2.33,3.33-4.64,5-6.96l7.64-10.64c1.69-2.36,3.5-4.67,5.1-7.09,.08-.13,.18-.25,.27-.37,.03-.05,.03-.5,0-.55-6.12-8.62-12.24-17.24-18.36-25.86-.87-1.22-1.73-2.44-2.6-3.66v.55c5.78,.05,11.55,.1,17.33,.15l8.97,.08c.51,0,.77-.09,1.08,.23s.52,.94,.73,1.33l1.39,2.53c1.68,3.04,3.52,5.95,4.47,9.32,.15,.53,.08,.76,.48,.91s.56-.02,.73-.19c.18-.19,.28-.97,.36-1.24,.13-.39,.27-.77,.42-1.15,.25-.62,.55-1.22,.87-1.82,.58-1.09,1.16-2.18,1.74-3.27l2.63-4.94c.24-.45,.53-1.39,.98-1.57,.58-.24,1.8,.02,2.41,.02l4.59,.04c6.71,.06,13.41,.12,20.12,.18v-.55c-6.23,8.5-12.47,17.01-18.7,25.51-.89,1.22-1.78,2.43-2.68,3.65-.03,.05-.03,.5,0,.55,6.93,9.8,13.86,19.6,20.79,29.41,1,1.41,1.99,2.82,2.99,4.23v-.55c-8.01-.07-16.02-.14-24.03-.21-1.15-.01-2.29-.02-3.44-.03,0,0,0,.55,0,.55,8.01,.07,16.02,.14,24.03,.21,1.15,.01,2.29,.02,3.44,.03-.01,0,.03-.51,0-.55-6.93-9.8-13.86-19.6-20.79-29.41-1-1.41-1.99-2.82-2.99-4.23v.55c6.23-8.5,12.47-17.01,18.7-25.51,.89-1.22,1.78-2.43,2.68-3.65,.03-.04-.01-.55,0-.55-5.78-.05-11.55-.1-17.33-.15l-8.97-.08c-.52,0-.77-.11-1.08,.21s-.51,.96-.72,1.35l-1.36,2.56-2.5,4.69c-.17,.32-.34,.64-.51,.96-.25,.48-.5,.95-.71,1.45-.16,.37-.31,.74-.44,1.12s-.24,1.36-.49,1.63c-.17,.18-.34,.34-.73,.19s-.33-.39-.48-.91c-.34-1.2-.71-2.42-1.29-3.53s-1.25-2.27-1.88-3.41l-2.7-4.9c-.25-.45-.54-1.36-1-1.54-.59-.24-1.79-.02-2.41-.02l-4.59-.04c-6.71-.06-13.42-.12-20.12-.18,.01,0-.03,.51,0,.55,6.12,8.62,12.24,17.24,18.36,25.86,.87,1.22,1.73,2.44,2.6,3.66v-.55c-3.86,5.37-7.71,10.73-11.57,16.1l-6.01,8.37c-.69,.96-1.36,1.86-1.56,3.07-.33,2.06,.39,4.29,2.17,5.48,1.32,.88,2.78,.83,4.27,.84l5.66,.05,6.66,.06,2.44,.02c.37,0,1.05,.15,1.4,.01,.51-.2,.93-1.34,1.22-1.82l3.22-5.43c1.79-3.01,3.96-6.03,5.08-9.38,.19-.57,.09-.63,.66-.65,.43-.01,.52-.03,.72,.24,.36,.48,.37,1.69,.58,2.3,.08,.23,.17,.45,.29,.67,.54,1.06,1.18,2.08,1.76,3.12l5.85,10.36,.44,.78c-.08-.14,.08-.41,0-.55Z"/>
            <g>
              <path d="M143.99,72.96c-1.54-.13-1.97-1.4-2.5-2.6l-2.16-4.88-4.56-10.29c-.14-.31-.27-.62-.41-.93-.15-.34-.32-.67-.45-1.01-.09-.23-.12-.71-.27-.89-.23-.28,.14-.18-.27-.14-.18,.02-.43,.23-.59,.31,0,0,0,.09,0,.08-.08,8.44-5.05,16.88-13.44,19.38-2.07,.62-6.69,1.8-6.99-1.54-.09-.95,.02-1.95,.03-2.9,.1-10.41,.19-20.81,.29-31.22l.15-16.05c.02-2.64-.11-5.34,.07-7.98,.13-1.93,1.69-2.21,3.22-2.19l6.74,.06,15.4,.14c2.69,.02,5.37,.11,8.01,.66,4.66,.97,8.77,3.48,11.67,7.27,3.18,4.16,4.42,9.43,4.27,14.61-.14,4.73-1.75,9.66-5.64,12.6-1.73,1.31-3.74,2.14-5.85,2.59,0,0,0,.09,0,.08v.94c0,.06-.05,.44,0,.47,2.8,1.65,4.21,4.82,5.84,7.52l6.34,10.51c.66,1.1,1.71,2.37,1.73,3.7v-.47c-.32,2.31-2.01,2.3-3.78,2.29l-6.39-.06c-3.48-.03-6.97-.07-10.45-.1,0,0,0,.55,0,.55,2.86,.03,5.73,.05,8.59,.08,3.22,.03,6.5,.23,9.72,.09,1.74-.08,2.46-1.67,2.31-3.22-.09-.96-.78-1.84-1.27-2.65l-6.09-10.09c-1.8-2.98-3.45-6.87-6.55-8.7v.47c0-.3-.06-.72,.11-.88,.27-.24,1.25-.31,1.64-.44,1.47-.48,2.87-1.2,4.11-2.13,2.22-1.68,3.76-4.06,4.63-6.68,1.42-4.28,1.38-9.45,.36-13.82-1.34-5.75-5.1-10.84-10.45-13.45-3.85-1.87-8.12-2.24-12.34-2.28-6.2-.06-12.39-.12-18.59-.17l-3.85-.04c-.7,0-1.52-.11-2.17,.19-1.47,.68-1.29,2.27-1.3,3.6-.12,12.54-.23,25.08-.35,37.62-.05,5.59-.1,11.17-.16,16.76,0,.86-.03,1.72-.02,2.58,0,.53,0,1.04,.23,1.54,.6,1.33,1.83,1.4,3.09,1.33,2.47-.15,4.89-.88,7.06-2.08,4.38-2.43,7.56-6.66,9.05-11.4,.39-1.23,.66-2.51,.82-3.79,.08-.6,.13-1.21,.15-1.81,.01-.29-.09-.83,.08-1.07,.09-.12,.68-.39,.75-.35,.16,.09,.28,1.02,.36,1.22,.17,.43,.39,.85,.57,1.28,2.37,5.41,4.79,10.8,7.19,16.2,.46,1.05,.96,1.98,2.27,2.09-.01,0,.02-.54,0-.55Z"/>
              <path d="M135.74,26.7c-1.46,.04-2.66,1.16-2.73,2.64-.03,.53-.01,1.07-.02,1.61-.01,1.56-.04,3.12-.04,4.68s.86,2.84,2.44,3.01c1.43,.15,3.12-.17,4.33-.96,2.08-1.35,2.48-4.01,2.18-6.3-.21-1.65-1.01-3.15-2.47-4.01-1.15-.68-2.41-.66-3.69-.67,0,0,0,.55,0,.55,.9,0,1.82-.04,2.69,.23,1.12,.34,2.12,1.13,2.72,2.14,1.32,2.21,1.05,5.54-1.02,7.22-1.86,1.51-6.42,2.26-7.11-.86-.02-.07-.09-.38-.06-.17,0-.02,0-.03,0-.05,0-.08,0-.17,0-.26v-.95c.02-.9,.03-1.8,.03-2.7,0-.65,0-1.31,.02-1.96,.06-1.48,1.27-2.6,2.73-2.65,0,0,0-.55,0-.55Z"/>
            </g>
            <path d="M101.11,73.33c-3.88-.01-7.79-.39-11.35-2.05-4.15-1.94-7.55-5.47-9.59-9.55s-2.39-8.81-2.39-13.45V10.86c.19-1.03,1.49-.73,2.29-.73h16.35c.84,0,2.62-.37,2.82,.73v-.27c0,5.46,0,10.93,0,16.39,0,6.47,0,12.95,0,19.42,0,3.62,.66,8.25,4.9,9.13,2.85,.59,6.2-.18,7.37-3.08,.71-1.76,.73-3.72,.73-5.59,0-5.59,0-11.17,0-16.76,0-6.39,.02-12.78,0-19.17,0-.11,0-.23,0-.34v.27c.19-1.04,1.55-.73,2.34-.73h16.33c.84,0,2.67-.38,2.88,.73v-.27c0,8.64,0,17.28,0,25.93,0,10.93,1.49,24.22-8.05,31.92-6.83,5.51-16.39,4.87-24.64,4.9,0,0,0,.55,0,.55,7.6-.02,16.01,.52,22.77-3.58,7.27-4.41,9.91-13.27,9.93-21.32,.02-9.14,0-18.28,0-27.42,0-3.6,.12-7.23,0-10.83-.04-1.32-.97-1.14-2-1.14h-15.9c-1,0-3.47-.51-3.66,.84-.11,.81,0,1.72,0,2.54v6.67c0,9.08,.05,18.16,0,27.24-.01,2.17-.1,4.81-1.62,6.54-1.43,1.62-3.92,1.94-5.95,1.67-4.18-.54-5.4-4.75-5.42-8.39-.03-3.82,0-7.65,0-11.47V11.91c0-.75,.25-2.14-.7-2.33-.44-.09-1,0-1.46,0h-12.13c-2.06,0-4.13-.09-6.19,0-1.04,.05-1.01,.82-1.01,1.64v29.97c0,3.14,0,6.28,0,9.42s.33,6.33,1.41,9.34c1.69,4.73,5.13,8.96,9.57,11.37,3.8,2.06,8.09,2.55,12.35,2.56,0,0,0-.55,0-.55Z"/>
            <path d="M60.96,73.19c-.18-.22-.18-.6-.24-.88l-.46-2.26-1.48-7.34-2.88-14.3c-.68-3.35-1.15-6.72-1.34-10.14h0c-.39,0-.78,0-1.18,0h0c-.17,4.32-.72,8.43-1.64,12.61l-3.38,15.31-1.27,5.75c-.06,.26-.07,.92-.25,1.13-.19,.22-.43,.14-.74,.14h-14.13c-.59,0-1.71,.25-2.07-.22s-.47-1.54-.64-2.11l-3.05-9.99c-3.13-10.24-6.25-20.47-9.38-30.71l-4.02-13.17c-.7-2.28-1.21-4.75-2.13-6.96-.04-.1-.07-.21-.1-.32v.55c.06-.39,2.99-.16,3.39-.16h7.54c2.37-.02,4.74-.02,7.12-.02,.57,0,2.05-.28,2.39,.19,.16,.22,.17,.82,.22,1.08l.44,2.19,1.31,6.53,3.01,14.99c.87,4.3,1.96,8.64,1.96,13.05,0,.02,0,.27,0,.27h1.02c.31-7.38,2.21-14.53,3.81-21.7l2.47-11.11,.86-3.89c.07-.32,.1-1.27,.33-1.51,.35-.36,1.8-.09,2.29-.09h10.8c.44,0,1.8-.24,2.11,.1,.26,.28,.29,1.31,.37,1.66l.86,3.9,2.42,10.98c1.58,7.18,3.43,14.29,3.92,21.66h0c.31,0,.62,0,.93,0,0-.01,0-.02,0-.04,.1-4.74,1.01-9.31,1.97-13.92l2.9-14.03,1.35-6.52,.47-2.26c.07-.36,.08-.94,.26-1.26,.3-.53,1.3-.27,1.91-.27h17.49c.35,0,.99-.16,1.13,.19v-.55c-3.17,10.33-6.33,20.65-9.5,30.98l-6.65,21.69-2.28,7.43-.68,2.2c-.07,.24-.14,.87-.32,1.05-.31,.31-1.35,.12-1.78,.12h-15.47s0,.55,0,.55h15.31c.42,0,1.38,.19,1.75,0,.29-.15,.32-.58,.43-.92,2.17-7.07,4.34-14.14,6.5-21.21,3.04-9.9,6.07-19.8,9.11-29.7l2.93-9.55c.2-.65,.48-1.31,.61-1.98,.1-.49,.13-.76-.35-.87-.59-.13-1.35,0-1.95,0h-17.19c-.9,0-.93-.07-1.11,.79-1.76,8.54-3.53,17.08-5.29,25.63-.36,1.76-.72,3.52-1,5.29-.16,1.06-.29,2.12-.38,3.18-.03,.36-.06,.72-.08,1.08-.03,.43,.15,1.76-.08,2.09-.13,.18-.02,.14-.25,.25-.18,.08-.59,0-.69-.11-.08-.09-.04-.61-.05-.75-.04-.52-.09-1.03-.14-1.55-.4-3.97-1.19-7.77-2.04-11.65l-3.32-15.05-1.41-6.41-.43-1.95c-.03-.16-.05-.62-.16-.74-.21-.22-.81-.1-1.1-.1h-13.41c-.3,0-.52-.07-.69,.14s-.19,.86-.25,1.12l-.49,2.21c-1.77,7.95-3.55,15.89-5.3,23.85-.54,2.45-.96,4.93-1.2,7.43-.1,1.02-.09,2.06-.21,3.08-.08,.68-.41,.49-1.04,.49v.27c0-3.43-.58-6.72-1.25-10.06l-2.4-11.91-2.66-13.23-.4-2.01c-.06-.31-.06-.84-.22-1.12-.28-.49-1.14-.26-1.71-.26l-13.37,.02c-1.59,0-3.34-.21-4.91,0-.51,.07-.53,.16-.43,.75,.26,1.56,.96,3.16,1.43,4.67l3.21,10.53c2.83,9.27,5.66,18.54,8.49,27.81l5.9,19.31c.07,.22,.14,.86,.31,1.03,.2,.18,.69,.08,.95,.08h15.21c.85,0,.75-.16,.92-.97l1.03-4.68,3.08-13.94c.65-2.95,1.44-5.89,1.77-8.89,.17-1.56,.3-3.13,.39-4.69,.02-.32-.1-1.39,.08-1.65,.16-.22,1.02-.2,1.19,0,.27,.33,.14,2.03,.18,2.53,.12,1.3,.28,2.59,.48,3.88,.14,.92,.3,1.83,.49,2.74,1.55,7.8,3.14,15.59,4.71,23.38,.12,.6,.12,1.8,.52,2.29-.09-.11,.09-.43,0-.55Z"/>
          </g>
          <g>
            <path class="cls-11" d="M145.8,10.07l27.94,.25,5.52,10.01c.6,1.14,1.2,3.14,1.49,4.28h.51c.42-1.61,.94-2.93,1.67-4.25l5.29-9.92,27.94,.25-21.57,29.42,23.97,33.9-28.14-.25-8.13-14.4c-.4-.67-.79-2.57-.89-3.04h-.71c-.32,1.03-.94,2.64-1.46,3.49l-8.18,13.78-17.99-.16c-4.27-.04-6.72-4.87-4.23-8.34l18.13-25.23-21.15-29.8Z"/>
            <path class="cls-11" d="M112.09,70.48l.54-58.44c.01-1.36,1.13-2.46,2.49-2.44l24.06,.22c6.17,.06,12.6,.88,17.92,6.75,2.97,3.27,5.48,8.16,5.41,15.7-.05,5.63-1.67,9.14-3.37,11.32-1.78,2.37-4.71,4.25-8.15,4.98v.57c1.13,.68,2.27,1.64,3.05,2.99l10.43,17.3c1.1,1.82-.1,4.26-2.08,4.24l-18.4-.17c-.93,0-1.78-.6-2.19-1.52l-7.62-17.17c-.26-.67-.52-.96-.77-2.01l-.35,.19v.15c-.11,11.19-8.4,20.19-18.52,20.09h0c-1.36-.01-2.46-1.24-2.44-2.75Zm21.12-34.85c-.01,1.36,1.08,2.48,2.44,2.49h0c1.23,.01,3.17-.16,4.51-1.39,.71-.66,1.52-1.89,1.54-3.9,.01-1.43-.33-2.87-1.11-3.83-.7-.87-1.84-1.73-3.6-1.75h-1.23c-1.36-.02-2.48,1.07-2.49,2.43l-.06,5.94Z"/>
            <path class="cls-11" d="M78.48,9.59h20.1c.53,0,.95,.45,.95,1V46.86c0,1.93,.18,4.62,1.92,6.55,1.19,1.35,2.66,1.73,4.4,1.73,2.29,0,3.67-.67,4.49-1.54,1.65-1.73,1.65-5.11,1.65-6.74V10.59c0-.55,.43-1,.95-1h20.19c.53,0,.95,.45,.95,1V48.98c0,5.01-.92,12.33-6.42,18.3-6.23,6.74-16.47,6.55-23.25,6.55-5.59,0-14.33,.87-21.29-7.03-4.77-5.39-5.59-11.46-5.59-16.18V10.59c0-.55,.43-1,.95-1Z"/>
            <path class="cls-11" d="M10.66,9.53H30.92c.16,0,.3,.13,.34,.31l6.05,30.11c.42,2.21,.92,4.14,.92,7.89h.5c.17-4.04,.67-7.41,1.42-10.78l6.05-27.23c.04-.18,.18-.3,.34-.3h15.04c.16,0,.3,.12,.34,.3l6.38,28.96c.5,2.31,1.01,6.55,1.17,9.05h.42c.08-4.14,.59-6.93,1.26-10.3l5.72-27.7c.04-.18,.18-.31,.34-.31h20.34c.24,0,.41,.27,.33,.53l-19.44,63.4c-.05,.16-.18,.27-.33,.27h-17.15c-.16,0-.3-.13-.34-.31l-5.21-25.87c-.5-2.6-.92-5.58-1.09-8.76h-.67c-.08,2.12-.42,6.74-.84,8.76l-5.71,25.88c-.04,.18-.18,.3-.34,.3H30.02c-.15,0-.28-.11-.33-.27L10.33,10.06c-.08-.26,.09-.53,.33-.53Z"/>
          </g>
          <g class="cls-10">
            <path d="M145.8,10.11c8.65,.08,17.29,.15,25.94,.23,.52,0,1.2-.1,1.72,.02,.37,.09,.21-.02,.47,.33,.58,.8,.99,1.8,1.47,2.66l2.05,3.73c1.15,2.09,2.27,4.03,2.96,6.33,.1,.32,.21,1.67,.86,1.25,.21-.14,.41-1.39,.51-1.66,.23-.64,.49-1.27,.79-1.88,.35-.71,.74-1.41,1.12-2.11l3.72-6.98c.17-.32,.5-1.36,.83-1.55,.17-.1,.7,0,.89,0l14.07,.12c4.22,.04,8.47-.07,12.69,.11,.35,.02,.25-.15,.18,.06-.11,.33-.53,.72-.73,1l-3.31,4.51c-5.68,7.75-11.37,15.51-17.05,23.26l-.37,.5s0,.08,0,.09c6.83,9.66,13.66,19.32,20.49,28.98,1.08,1.53,2.42,3.05,3.32,4.69,.16,.3,.18,.18-.28,.13-.93-.1-1.91-.02-2.85-.03-7.08-.06-14.15-.12-21.23-.19l-3.08-.03c-.54,0-.49,.04-.78-.41-1.67-2.69-3.13-5.54-4.69-8.3l-2.45-4.34c-.49-.87-.97-1.67-1.25-2.65-.14-.5-.16-2.23-1.05-1.77-.29,.15-.52,1.29-.66,1.65-.25,.64-.54,1.26-.88,1.85-.41,.71-.84,1.41-1.25,2.11l-5.47,9.23-.99,1.66c-.1,.16-.28,.66-.45,.76-.38,.22-1.52,0-1.95,0l-10.71-.09-4.4-.04c-1.25-.01-2.45-.06-3.57-.72-2.38-1.4-3.3-4.54-1.95-6.99,.28-.5,.65-.96,.98-1.43l4.95-6.89,11.79-16.41,.76-1.05s0-.08,0-.09c-6.17-8.7-12.35-17.39-18.52-26.09-.88-1.24-1.75-2.47-2.63-3.71,.01,.02-.01,.07,0,.09,6.65,9.36,13.29,18.73,19.94,28.09,.33,.46,.91,1.03,1.11,1.56,.06,.16,.08,.13,.09,.07-.01,.12-.25,.34-.32,.44l-4.33,6.02c-4.05,5.63-8.09,11.27-12.14,16.9-1.1,1.54-2.34,2.98-2.33,4.99,.03,3.26,2.69,5.26,5.75,5.29s6.31,.06,9.47,.08l5.19,.05,1.87,.02c.22,0,.72,.11,.9,0,.37-.2,.72-1.15,.94-1.52l2.62-4.42c1.51-2.55,3.03-5.09,4.53-7.64,.32-.55,.61-1.12,.86-1.71s.65-2.73,1.47-1.84c.19,.21,.22,1.01,.3,1.3,.14,.55,.3,1.09,.56,1.59,.1,.19,.22,.38,.32,.57l4.83,8.55,2.28,4.05c.2,.35,.44,1.08,.8,1.23,.5,.22,1.56,.01,2.1,.02l4.26,.04c6.75,.06,13.51,.12,20.26,.18h1.42s0-.07,0-.08c-6.58-9.3-13.15-18.6-19.73-27.9l-3.74-5.29c-.1-.14-.49-.76-.5-.63,.02-.29,.61-.83,.77-1.06,3.66-4.99,7.31-9.97,10.97-14.96,3.28-4.47,6.55-8.93,9.83-13.4,0,0,0-.09,0-.09-5.81-.05-11.62-.1-17.43-.15l-9.31-.08c-.33,0-.97-.13-1.23,.05s-.49,.91-.63,1.18l-1.29,2.43c-1.65,3.1-3.73,6.28-4.76,9.66-.08,.25-.18,1.23-.71,.85-.25-.18-.39-1.27-.5-1.6-.3-.97-.64-1.93-1.12-2.83-.65-1.24-1.35-2.45-2.02-3.67l-2.74-4.98c-.28-.5-.41-1.06-.9-1.22-.76-.24-1.95-.02-2.74-.02l-4.72-.04c-6.75-.06-13.5-.12-20.25-.18,0,0,0,.09,0,.09Z"/>
            <g>
              <path d="M112.1,70.51c.06-6.04,.11-12.07,.17-18.11,.09-10.16,.19-20.32,.28-30.49l.08-8.89c.01-1.08,0-2.13,.99-2.88s2.61-.49,3.78-.48c4.83,.05,9.66,.09,14.5,.14,3.81,.04,7.71-.11,11.51,.27,3.99,.4,7.86,1.61,11.06,4.09,2.86,2.21,5.1,5.18,6.42,8.54,1.83,4.66,2.17,10.15,.98,15-.8,3.27-2.51,6.29-5.26,8.32-1.67,1.24-3.6,2.04-5.62,2.5,0,0,0,.02,0,.01,0,.16-.08,.49,0,.64,.04,.07,.36,.24,.47,.31,.59,.39,1.14,.85,1.62,1.37,.59,.64,1.02,1.39,1.47,2.13l3.96,6.56,4.63,7.68c1.07,1.77,3.12,4.61,.41,6.11-.65,.36-1.39,.28-2.11,.28l-3.36-.03-9.41-.09-3.5-.03c-.71,0-1.51,.08-2.16-.25-1.51-.76-2.22-3.6-2.85-5.01l-4.27-9.62-1.44-3.24c-.08-.19-.17-.38-.25-.57-.15-.33-.31-.66-.45-1-.08-.2-.13-.42-.22-.61-.22-.48-.04-.45-.46-.22,0,0,0,.01,0,.01-.06,6.05-2.5,12.02-7.14,15.99-2.07,1.77-4.53,3.08-7.18,3.74-2.42,.6-6.48,1.35-6.65-2.25,0,.02,0,.06,0,.09,.18,3.77,4.66,2.82,7.12,2.13,3.05-.85,5.81-2.57,8.01-4.84s3.97-5.31,4.91-8.47c.46-1.53,.74-3.11,.86-4.7,.02-.31-.11-1.26,.06-1.55,.43-.72,.74,.88,.91,1.25,1.36,3.02,2.69,6.06,4.03,9.1l2.71,6.11c.45,1,.83,2.41,1.6,3.23,.97,1.03,2.61,.78,3.89,.79l6.37,.06,6.8,.06c1.08,.01,2.25,.16,3.32,.01,1.97-.27,2.63-2.59,1.85-4.17-.45-.9-1.05-1.75-1.57-2.61l-6.91-11.47c-.66-1.09-1.31-2.19-1.98-3.28s-1.56-2.03-2.64-2.78c-1.17-.8,.36-.95,1.09-1.19,.92-.3,1.82-.69,2.66-1.17,5.48-3.1,7.34-9.26,7.31-15.23-.03-6.5-2.25-12.77-7.26-17.08-4.67-4.02-10.58-4.89-16.54-4.95-7.61-.07-15.22-.14-22.82-.21-1.62-.02-3.13,.54-3.26,2.44-.02,.35,0,.71,0,1.06l-.07,7.94-.26,27.41c-.06,6.97-.13,13.94-.19,20.91v1.13s-.01,.1,0,.06Z"/>
              <path d="M133.22,35.67c.03,1.29,.98,2.39,2.29,2.49s2.67-.15,3.78-.76c2.1-1.15,2.66-3.69,2.32-5.91-.22-1.43-.89-2.73-2.12-3.54-1.04-.69-2.18-.74-3.38-.75s-2.33,.48-2.73,1.72c-.16,.5-.12,1.06-.12,1.59-.02,1.7-.03,3.4-.05,5.09,0,.01,0,.1,0,.06,.01-1.33,.02-2.66,.04-3.98,.01-1.57-.22-3.51,1.58-4.22,.73-.29,1.67-.2,2.44-.15,1.27,.08,2.42,.67,3.24,1.65,1.14,1.35,1.4,3.43,1.06,5.11-.22,1.09-.77,2.14-1.66,2.84-1.84,1.45-6.62,2.12-6.69-1.31,0,0,0,.06,0,.08Z"/>
            </g>
            <path d="M78.48,9.63c4.37,0,8.74,0,13.12,0h6.42c.71,0,1.37,.07,1.5,.96,.04,.28,0,.61,0,.89,0,10.06,0,20.11,0,30.17,0,3.09-.46,7.01,.74,9.9,.9,2.17,2.69,3.49,5.03,3.62,1.97,.11,4.23-.29,5.43-2.01,1.28-1.84,1.26-4.33,1.26-6.48,0-9.52,0-19.04,0-28.55v-5.96c0-.99-.28-2.38,1.05-2.54,1.68-.21,3.52,0,5.21,0h8.78c1.94,0,3.91-.09,5.85,0,1.33,.06,1.2,1.13,1.2,2.11v13.47c0,5.65,0,11.31,0,16.96,0,3.85,.21,7.82-.32,11.64-.63,4.53-2.32,8.89-5.23,12.44s-6.76,5.54-11.09,6.54c-3.89,.9-7.91,1-11.89,1-3.39,0-6.8,.18-10.15-.35-9.49-1.5-16.37-9.26-17.6-18.68-.48-3.67-.25-7.51-.25-11.21,0-10.38,0-20.77,0-31.15,0-.96-.32-2.55,.95-2.77,0,0,0-.09,0-.09-1.19,.2-.95,1.45-.95,2.34v5.48c0,5.78,0,11.55,0,17.33v14.23c0,5.24,.54,10.37,3.37,14.95,2.56,4.15,6.48,7.4,11.14,8.88,3.57,1.14,7.3,1.19,11.01,1.15,7.89-.09,16.74,.26,23.15-5.17,5.76-4.88,7.85-12.58,7.87-19.86,0-3.62,0-7.23,0-10.85V20.21c0-2.26,0-4.52,0-6.78,0-.92,.1-1.92,0-2.84-.16-1.44-2.02-1.05-3.07-1.05h-16.19c-1.05,0-2.66-.35-2.83,1.07-.12,1.03,0,2.16,0,3.2v31.19c0,1.77,.08,3.58-.23,5.33-.33,1.85-1.15,3.53-2.97,4.28-1.96,.81-4.78,.8-6.54-.49-2.5-1.83-2.73-5.11-2.73-7.95V15.79c0-1.57,0-3.14,0-4.72,0-.17,.02-.36,0-.53-.12-.88-.7-.99-1.42-1.01-5.11-.13-10.24,0-15.35,0h-4.28s0,.09,0,.09Z"/>
            <path d="M10.66,9.58c3.63,0,7.25,0,10.88,0h7.1c.67,0,2.28-.33,2.64,.36,.41,.81,.43,2.12,.6,3l1.26,6.27,2.99,14.88c.91,4.54,2.08,9.12,2.11,13.77,0,0,0,.02,0,.02h.5c.33-7.3,2.23-14.39,3.8-21.5l2.47-11.11,.86-3.89c.09-.42,.11-1.13,.33-1.51,.36-.6,1.76-.3,2.37-.3h10.8c.6,0,2.18-.31,2.55,.3,.21,.36,.23,1.04,.32,1.44l.83,3.74,2.4,10.88c1.6,7.27,3.49,14.49,4.02,21.94h0c.14,0,.28,0,.42,0h0c.17-7.15,2.07-14.26,3.51-21.24l2.35-11.39,.82-3.99c.07-.35,.08-1.33,.41-1.61,.41-.35,1.76-.09,2.24-.09h15.98c.59,0,1.79-.24,2.34,0,.51,.22,.28,.61,.16,1l-1.46,4.77c-4.29,13.99-8.58,27.99-12.87,41.98l-4.55,14.85c-.11,.35-.17,.84-.36,1.16-.28,.47-.71,.34-1.22,.34h-15.3c-.61,0-1.1,.16-1.35-.46-.32-.76-.36-1.78-.52-2.58l-.94-4.64c-1.24-6.14-2.5-12.28-3.71-18.43-.57-2.91-.93-5.87-1.1-8.83h0c-.22,0-.45,0-.67,0h0c-.4,9.58-3.07,18.89-5.13,28.21l-1.22,5.51c-.06,.25-.07,.67-.2,.9-.26,.43-.7,.31-1.16,.31h-14.21c-.72,0-1.72,.27-2.09-.42-.32-.61-.44-1.44-.64-2.09l-3.08-10.08c-3.13-10.24-6.25-20.48-9.38-30.73l-4.04-13.22-1.35-4.42c-.24-.77-.6-1.6-.73-2.4-.05-.32-.28-.54,.24-.74,.01,0,0-.09,0-.09-.86,.33,.29,2.64,.45,3.17l2.87,9.4c2.89,9.46,5.78,18.92,8.66,28.38l6.58,21.53c.13,.44,.21,1.11,.46,1.5,.4,.63,1.98,.31,2.64,.31h13.44c.28,0,.84,.11,1.1-.04,.28-.16,.29-.52,.35-.82l1-4.53,3.17-14.37c.71-3.22,1.53-6.41,1.86-9.7,.16-1.62,.22-3.24,.36-4.86,.03-.36-.03-.52,.26-.62,.58-.21,.46,.59,.49,.95,.11,1.07,.18,2.14,.31,3.21,.24,1.94,.58,3.87,.96,5.79l4.87,24.16c.19,.96,.65,.84,1.56,.84h13.59c.66,0,2.37,.34,2.79-.3,.24-.37,.31-1.02,.44-1.43l1.04-3.39,3.38-11.02c2.95-9.62,5.9-19.24,8.85-28.85,1.87-6.09,3.97-12.16,5.62-18.31,.07-.28,.26-.66,0-.9-.21-.18-.76-.08-.99-.08h-18.78c-.25,0-.78-.1-1,.09-.46,.39-.49,1.99-.59,2.51l-2.79,13.52-2.34,11.33c-.48,2.31-.91,4.63-1.15,6.98-.09,.91-.15,1.82-.19,2.74,0,.24,.08,1.35-.35,1.16-.23-.1-.18-.97-.19-1.1-.17-1.92-.39-3.83-.69-5.74-.47-3.03-1.24-6.02-1.9-9.01-1.07-4.87-2.15-9.75-3.22-14.62l-1.22-5.55c-.12-.56-.16-2.05-.78-2.29-.32-.13-.96,0-1.3,0h-13.02c-.44,0-.81-.11-1.06,.31-.4,.69-.44,1.96-.61,2.73l-3.06,13.77c-.77,3.49-1.55,6.98-2.32,10.46-.67,3.02-1.16,6.06-1.37,9.14-.03,.39,.07,1.33-.13,1.65-.26,.4-.35,.28-.48-.22-.17-.65-.04-1.48-.09-2.14-.12-1.59-.41-3.15-.72-4.72-1.49-7.61-3.05-15.2-4.58-22.8l-1.14-5.69c-.1-.51-.12-2.03-.56-2.41-.22-.19-.76-.09-1.01-.09h-2.28c-2.39,0-4.79,0-7.18,0-3.33,0-6.67,0-10,0,0,0,0,.09,0,.09Z"/>
          </g>
          <g>
            <path class="cls-8" d="M145.8,10.07l27.94,.25,5.52,10.01c.6,1.14,1.2,3.14,1.49,4.28h.51c.42-1.61,.94-2.93,1.67-4.25l5.29-9.92,27.94,.25-21.57,29.42,23.97,33.9-28.14-.25-8.13-14.4c-.4-.67-.79-2.57-.89-3.04h-.71c-.32,1.03-.94,2.64-1.46,3.49l-8.18,13.78-17.99-.16c-4.27-.04-6.72-4.87-4.23-8.34l18.13-25.23-21.15-29.8Z"/>
            <path class="cls-5" d="M112.09,70.48l.54-58.44c.01-1.36,1.13-2.46,2.49-2.44l24.06,.22c6.17,.06,12.6,.88,17.92,6.75,2.97,3.27,5.48,8.16,5.41,15.7-.05,5.63-1.67,9.14-3.37,11.32-1.78,2.37-4.71,4.25-8.15,4.98v.57c1.13,.68,2.27,1.64,3.05,2.99l10.43,17.3c1.1,1.82-.1,4.26-2.08,4.24l-18.4-.17c-.93,0-1.78-.6-2.19-1.52l-7.62-17.17c-.26-.67-.52-.96-.77-2.01l-.35,.19v.15c-.11,11.19-8.4,20.19-18.52,20.09h0c-1.36-.01-2.46-1.24-2.44-2.75Zm21.12-34.85c-.01,1.36,1.08,2.48,2.44,2.49h0c1.23,.01,3.17-.16,4.51-1.39,.71-.66,1.52-1.89,1.54-3.9,.01-1.43-.33-2.87-1.11-3.83-.7-.87-1.84-1.73-3.6-1.75h-1.23c-1.36-.02-2.48,1.07-2.49,2.43l-.06,5.94Z"/>
            <path class="cls-6" d="M78.48,9.59h20.1c.53,0,.95,.45,.95,1V46.86c0,1.93,.18,4.62,1.92,6.55,1.19,1.35,2.66,1.73,4.4,1.73,2.29,0,3.67-.67,4.49-1.54,1.65-1.73,1.65-5.11,1.65-6.74V10.59c0-.55,.43-1,.95-1h20.19c.53,0,.95,.45,.95,1V48.98c0,5.01-.92,12.33-6.42,18.3-6.23,6.74-16.47,6.55-23.25,6.55-5.59,0-14.33,.87-21.29-7.03-4.77-5.39-5.59-11.46-5.59-16.18V10.59c0-.55,.43-1,.95-1Z"/>
            <path class="cls-7" d="M10.66,9.53H30.92c.16,0,.3,.13,.34,.31l6.05,30.11c.42,2.21,.92,4.14,.92,7.89h.5c.17-4.04,.67-7.41,1.42-10.78l6.05-27.23c.04-.18,.18-.3,.34-.3h15.04c.16,0,.3,.12,.34,.3l6.38,28.96c.5,2.31,1.01,6.55,1.17,9.05h.42c.08-4.14,.59-6.93,1.26-10.3l5.72-27.7c.04-.18,.18-.31,.34-.31h20.34c.24,0,.41,.27,.33,.53l-19.44,63.4c-.05,.16-.18,.27-.33,.27h-17.15c-.16,0-.3-.13-.34-.31l-5.21-25.87c-.5-2.6-.92-5.58-1.09-8.76h-.67c-.08,2.12-.42,6.74-.84,8.76l-5.71,25.88c-.04,.18-.18,.3-.34,.3H30.02c-.15,0-.28-.11-.33-.27L10.33,10.06c-.08-.26,.09-.53,.33-.53Z"/>
          </g>
        </g>
      </g>
    </g>
  </g>
</svg>